<svg width="100" height="100" viewBox="341.0 721.947 110.0 108.4733" fill="none" xmlns="http://www.w3.org/2000/svg">
<rect xmlns="http://www.w3.org/2000/svg" x="346" y="726.947" width="100" height="98.4733" rx="49.2366" fill="none" />

<path xmlns="http://www.w3.org/2000/svg" d="M400.271 783.14C399.79 783.14 399.31 783.093 398.838 783.001L399.184 781.271C400.019 781.43 400.878 781.402 401.701 781.191C402.524 780.979 403.29 780.589 403.945 780.047C404.599 779.506 405.126 778.827 405.488 778.058C405.85 777.289 406.038 776.45 406.038 775.601V775.518C406.056 775.146 406.032 774.773 405.969 774.406L405.869 773.949L407.056 772.724C407.444 772.344 407.695 771.846 407.769 771.308V771.246L408.077 769.962C408.154 769.602 408.111 769.226 407.954 768.893C407.797 768.559 407.535 768.287 407.208 768.117L406.405 767.771L406.751 766.964C407.368 765.565 407.685 764.052 407.682 762.523C407.682 756.258 402.428 751.159 395.965 751.159C389.502 751.159 384.282 756.254 384.282 762.519C384.282 764.043 384.598 765.551 385.21 766.947L385.556 767.753L384.753 768.099C384.423 768.27 384.158 768.545 384.001 768.882C383.843 769.219 383.802 769.599 383.884 769.962L384.203 771.308C384.279 771.849 384.532 772.35 384.923 772.731L384.968 772.773L386.11 773.956L386.013 774.417C385.95 774.779 385.926 775.147 385.944 775.514V775.601C385.944 776.453 386.132 777.294 386.495 778.065C386.858 778.836 387.388 779.517 388.045 780.059C388.703 780.601 389.472 780.99 390.298 781.2C391.124 781.409 391.986 781.434 392.822 781.271L393.168 783.001C392.076 783.215 390.951 783.184 389.873 782.911C388.794 782.638 387.79 782.129 386.932 781.422C386.073 780.714 385.383 779.825 384.909 778.819C384.435 777.812 384.191 776.713 384.192 775.601V775.511C384.192 775.164 384.192 774.836 384.224 774.521L383.729 774.005C383.059 773.369 382.621 772.529 382.482 771.616L382.164 770.266C382.053 769.662 382.102 769.039 382.304 768.459C382.507 767.879 382.857 767.361 383.32 766.957C382.791 765.535 382.521 764.03 382.524 762.513C382.524 755.278 388.568 749.393 395.996 749.393C403.425 749.393 409.469 755.278 409.469 762.513C409.471 764.029 409.202 765.535 408.676 766.957C409.138 767.362 409.488 767.879 409.69 768.459C409.893 769.039 409.942 769.662 409.832 770.266V770.329L409.524 771.616C409.385 772.529 408.947 773.369 408.278 774.005L407.769 774.528C407.8 774.843 407.8 775.158 407.8 775.524V775.601C407.8 777.598 407.007 779.514 405.596 780.928C404.184 782.342 402.269 783.137 400.271 783.14Z" fill="#333333" />

<path xmlns="http://www.w3.org/2000/svg" d="M388.776 762.101H387.021C387.03 760.152 387.744 758.273 389.032 756.811C389.906 755.831 390.981 755.048 392.182 754.517C393.384 753.986 394.686 753.718 396 753.731V755.486C394.936 755.473 393.882 755.689 392.91 756.119C391.937 756.549 391.068 757.183 390.361 757.978C389.345 759.111 388.781 760.578 388.776 762.101Z" fill="#333333" />

<path xmlns="http://www.w3.org/2000/svg" d="M398.569 755.918C398.156 755.775 397.732 755.666 397.302 755.593L397.593 753.862C398.122 753.951 398.643 754.084 399.15 754.26L398.569 755.918Z" fill="#333333" />

<path xmlns="http://www.w3.org/2000/svg" d="M396 784.386C395.268 784.386 394.552 784.169 393.944 783.762C393.335 783.356 392.861 782.778 392.581 782.102C392.301 781.426 392.228 780.682 392.37 779.964C392.513 779.246 392.866 778.587 393.383 778.069C393.901 777.552 394.56 777.199 395.278 777.056C395.996 776.914 396.74 776.987 397.416 777.267C398.092 777.547 398.67 778.021 399.076 778.63C399.483 779.238 399.7 779.954 399.7 780.686C399.7 781.667 399.31 782.608 398.616 783.302C397.922 783.996 396.981 784.386 396 784.386ZM396 778.744C395.615 778.744 395.239 778.858 394.919 779.072C394.599 779.286 394.349 779.59 394.202 779.945C394.055 780.301 394.017 780.692 394.092 781.07C394.167 781.447 394.353 781.794 394.625 782.066C394.898 782.338 395.245 782.523 395.622 782.598C396 782.672 396.391 782.633 396.747 782.485C397.102 782.338 397.406 782.088 397.619 781.767C397.832 781.447 397.946 781.071 397.945 780.686C397.944 780.17 397.739 779.676 397.374 779.312C397.009 778.948 396.515 778.744 396 778.744Z" fill="#333333" />

<path xmlns="http://www.w3.org/2000/svg" d="M399.026 780.62V778.865C399.402 778.866 399.773 778.779 400.109 778.61C400.445 778.441 400.736 778.195 400.959 777.892C401.182 777.59 401.331 777.238 401.393 776.868C401.455 776.497 401.429 776.116 401.316 775.758C401.204 775.399 401.008 775.071 400.746 774.802C400.483 774.533 400.16 774.33 399.804 774.209C399.448 774.087 399.069 774.052 398.697 774.105C398.324 774.158 397.97 774.298 397.662 774.514C397.174 774.853 396.593 775.036 395.998 775.036C395.404 775.036 394.823 774.853 394.335 774.514C394.027 774.3 393.674 774.162 393.303 774.111C392.932 774.059 392.554 774.096 392.199 774.217C391.845 774.339 391.524 774.542 391.263 774.81C391.001 775.078 390.807 775.405 390.695 775.762C390.583 776.119 390.556 776.498 390.618 776.868C390.679 777.237 390.827 777.587 391.048 777.889C391.27 778.191 391.559 778.437 391.893 778.606C392.227 778.776 392.597 778.864 392.971 778.865V780.62C392.354 780.621 391.745 780.484 391.188 780.218C390.631 779.953 390.14 779.566 389.752 779.086C389.362 778.602 389.084 778.037 388.94 777.433C388.795 776.828 388.788 776.198 388.918 775.59C389.065 774.925 389.374 774.306 389.818 773.788C390.261 773.27 390.825 772.869 391.46 772.621C392.095 772.372 392.781 772.284 393.458 772.364C394.135 772.443 394.782 772.688 395.342 773.077C395.536 773.209 395.764 773.28 395.998 773.28C396.232 773.28 396.461 773.209 396.654 773.077C397.189 772.699 397.805 772.452 398.453 772.356C399.1 772.261 399.761 772.321 400.382 772.529C401.002 772.738 401.565 773.091 402.023 773.559C402.481 774.026 402.823 774.596 403.019 775.22C403.215 775.845 403.261 776.507 403.153 777.153C403.045 777.799 402.785 778.41 402.396 778.936C402.007 779.463 401.498 779.889 400.913 780.182C400.327 780.475 399.68 780.625 399.026 780.62Z" fill="#333333" />

<path xmlns="http://www.w3.org/2000/svg" d="M396.128 808.658C393.705 808.658 391.281 808.551 388.89 808.336C379.73 807.509 372.856 799.572 373.548 790.641C373.548 790.603 373.548 790.565 373.548 790.53V765.465C373.554 759.571 375.899 753.92 380.067 749.752C384.236 745.584 389.887 743.241 395.781 743.235H396.214C402.108 743.242 407.759 745.586 411.926 749.753C416.094 753.921 418.438 759.571 418.444 765.465V789.793C418.444 789.821 418.444 789.855 418.444 789.893C419.157 799.416 412.508 807.523 403.303 808.347C400.95 808.551 398.533 808.658 396.128 808.658ZM395.781 744.99C390.353 744.997 385.149 747.156 381.311 750.994C377.472 754.833 375.313 760.037 375.306 765.465V790.53C375.306 790.599 375.306 790.679 375.306 790.769C374.69 798.755 380.845 805.848 389.059 806.588C393.751 807.005 398.47 807.005 403.161 806.588C411.396 805.851 417.354 798.571 416.706 790.011C416.706 789.928 416.706 789.852 416.706 789.783V765.465C416.701 760.037 414.543 754.833 410.705 750.995C406.867 747.156 401.663 744.997 396.235 744.99H395.781Z" fill="#333333" />

<path xmlns="http://www.w3.org/2000/svg" d="M417.901 793.968C380.136 793.968 374.324 776.085 373.594 768.394L375.325 768.224C376.017 775.438 381.555 792.213 417.901 792.213V793.968Z" fill="#333333" />

<path xmlns="http://www.w3.org/2000/svg" d="M414.609 800.738C413.851 800.693 413.051 800.628 412.238 800.544L412.418 798.796C413.207 798.879 413.982 798.942 414.716 798.987L414.609 800.738ZM409.88 800.254C409.114 800.145 408.333 800.023 407.537 799.887L407.838 798.156C408.613 798.291 409.378 798.412 410.123 798.502L409.88 800.254ZM405.211 799.447C404.449 799.291 403.674 799.122 402.895 798.942L403.296 797.232C404.058 797.408 404.816 797.578 405.56 797.727L405.211 799.447ZM400.6 798.367C399.842 798.166 399.084 797.955 398.319 797.73L398.817 796.048C399.565 796.265 400.309 796.473 401.05 796.671L400.6 798.367ZM396.058 797.024C395.311 796.778 394.559 796.522 393.815 796.252L394.414 794.601C395.141 794.868 395.871 795.117 396.605 795.359L396.058 797.024ZM391.6 795.408C390.859 795.113 390.122 794.802 389.412 794.49L390.104 792.884C390.797 793.189 391.51 793.49 392.233 793.781L391.6 795.408ZM387.259 793.49C386.536 793.144 385.826 792.77 385.144 792.399L385.982 790.856C386.639 791.202 387.328 791.569 388.031 791.911L387.259 793.49ZM383.078 791.212C382.385 790.793 381.693 790.357 381.066 789.921L382.06 788.471C382.673 788.889 383.32 789.308 383.988 789.713L383.078 791.212ZM379.131 788.509C378.491 788.007 377.871 787.488 377.29 786.965L378.463 785.663C379.014 786.158 379.602 786.65 380.194 787.124L379.131 788.509ZM375.576 785.293C375.022 784.705 374.497 784.089 374.005 783.448L375.389 782.378C375.836 782.956 376.324 783.534 376.85 784.092L375.576 785.293Z" fill="#333333" />

<path xmlns="http://www.w3.org/2000/svg" d="M396.214 791.209L395.729 789.519C396.218 789.381 396.695 789.236 397.159 789.087L397.692 790.762C397.211 790.914 396.716 791.063 396.214 791.209ZM399.946 789.983L399.329 788.339C400.053 788.069 400.766 787.778 401.448 787.477L402.14 789.083C401.444 789.395 400.7 789.699 399.946 789.983ZM404.307 788.062L403.494 786.504C404.186 786.158 404.844 785.771 405.474 785.383L406.394 786.878C405.737 787.273 405.038 787.671 404.307 788.062ZM408.395 785.539L407.357 784.123C407.973 783.673 408.568 783.199 409.126 782.714L410.278 784.036C409.697 784.542 409.063 785.047 408.406 785.525L408.395 785.539ZM412.03 782.361L410.766 781.139C411.286 780.592 411.777 780.018 412.234 779.433L413.619 780.506C413.124 781.146 412.597 781.76 412.04 782.347L412.03 782.361ZM414.996 778.522L413.501 777.598C413.9 776.953 414.263 776.286 414.588 775.601L416.173 776.359C415.823 777.095 415.433 777.813 415.007 778.508L414.996 778.522ZM417.115 774.123L415.446 773.524C415.695 772.818 415.907 772.099 416.08 771.371L417.807 771.793C417.617 772.581 417.386 773.359 417.115 774.123ZM418.243 769.401L416.513 769.169C416.613 768.423 416.675 767.672 416.699 766.919L418.454 766.978C418.403 767.788 418.337 768.601 418.229 769.401H418.243Z" fill="#333333" />

</svg>