<svg width="100" height="100" viewBox="201.0 575.0 110.0 108.4733" fill="none" xmlns="http://www.w3.org/2000/svg">
<rect xmlns="http://www.w3.org/2000/svg" x="206" y="580" width="100" height="98.4733" rx="49.2366" fill="none" />

<path xmlns="http://www.w3.org/2000/svg" d="M237.106 635.168L236.479 634.453C236.09 633.996 234.053 631.626 234.053 630.03C234.044 629.202 234.343 628.398 234.898 627.759C235.168 627.452 235.505 627.204 235.887 627.034C236.268 626.863 236.684 626.773 237.106 626.771C238.789 626.771 240.16 628.245 240.16 630.044C240.16 631.622 238.142 633.992 237.737 634.468L237.106 635.168ZM237.106 628.323C236.921 628.327 236.74 628.371 236.575 628.45C236.41 628.529 236.266 628.642 236.152 628.78C235.845 629.136 235.682 629.585 235.693 630.044C235.693 630.623 236.397 631.758 237.106 632.691C237.819 631.758 238.52 630.623 238.52 630.044C238.52 629.097 237.885 628.323 237.106 628.323Z" fill="#333333" />

<path xmlns="http://www.w3.org/2000/svg" d="M237.87 612.267H236.343V627.534H237.87V612.267Z" fill="#333333" />

<path xmlns="http://www.w3.org/2000/svg" d="M265.351 619.137H243.213V609.305L243.645 609.071C243.806 608.985 247.669 606.924 253.923 606.924C257.654 606.948 261.35 607.642 264.833 608.973L265.351 609.168V619.137ZM244.85 617.494H263.694V610.316C260.548 609.177 257.228 608.585 253.88 608.567C250.773 608.527 247.691 609.119 244.823 610.308L244.85 617.494Z" fill="#333333" />

<path xmlns="http://www.w3.org/2000/svg" d="M244.039 614.557L234.816 609.429L254.781 597L274.511 609.433L265.378 614.515L264.576 613.095L271.315 609.344L254.773 598.926L238.028 609.348L244.837 613.138L244.039 614.557Z" fill="#333333" />

<path xmlns="http://www.w3.org/2000/svg" d="M260.77 613.794H243.977V615.321H260.77V613.794Z" fill="#333333" />

<path xmlns="http://www.w3.org/2000/svg" d="M245.028 628.298L243.42 627.242C242.711 626.777 242.227 626.098 242.061 625.339L241.749 623.942C241.656 623.535 241.667 623.115 241.783 622.713C241.899 622.31 242.116 621.935 242.418 621.614C242.693 621.319 243.039 621.081 243.432 620.916C243.826 620.752 244.256 620.666 244.691 620.664H246.267V622.191H244.704C244.525 622.191 244.349 622.227 244.188 622.295C244.028 622.364 243.887 622.463 243.777 622.586C243.64 622.733 243.542 622.904 243.49 623.088C243.439 623.272 243.434 623.463 243.478 623.649L243.79 625.048C243.871 625.436 244.114 625.783 244.471 626.024L246.08 627.079L245.028 628.298Z" fill="#333333" />

<path xmlns="http://www.w3.org/2000/svg" d="M263.549 628.298L262.497 627.079L264.106 626.024C264.463 625.783 264.706 625.436 264.787 625.048L265.099 623.649C265.142 623.463 265.137 623.272 265.085 623.088C265.034 622.905 264.936 622.733 264.8 622.586C264.69 622.463 264.549 622.364 264.389 622.295C264.228 622.227 264.052 622.191 263.873 622.191H262.297V620.664H263.873C264.309 620.666 264.739 620.752 265.132 620.917C265.525 621.081 265.872 621.319 266.147 621.614C266.449 621.935 266.665 622.31 266.781 622.713C266.896 623.115 266.909 623.535 266.816 623.942L266.504 625.339C266.341 626.097 265.861 626.775 265.157 627.242L263.549 628.298Z" fill="#333333" />

<path xmlns="http://www.w3.org/2000/svg" d="M260.007 633.641H258.48V639.748H260.007V633.641Z" fill="#333333" />

<path xmlns="http://www.w3.org/2000/svg" d="M254.251 661.885C246.17 661.885 238.354 660.547 231.692 658.018L231 657.755L232.497 652.576C234.298 646.668 238.311 641.943 243.514 639.609L248.286 637.462L248.956 638.923L244.18 641.07C239.408 643.217 235.714 647.58 234.047 653.034L232.966 656.771C239.293 659.059 246.631 660.272 254.251 660.272C261.871 660.272 269.26 659.056 275.594 656.752L274.513 653.018C272.85 647.576 269.156 643.213 264.376 641.066L259.6 638.919L260.27 637.458L265.046 639.609C270.249 641.947 274.282 646.672 276.067 652.576L277.564 657.732L276.872 657.999C270.195 660.539 262.375 661.885 254.251 661.885Z" fill="#333333" />

<path xmlns="http://www.w3.org/2000/svg" d="M278.294 652.725L277.955 651.505C276.26 645.752 272.499 641.147 267.641 638.88L268.338 637.458C273.616 639.92 277.693 644.885 279.511 651.081L279.854 652.309L278.294 652.725Z" fill="#333333" />

<path xmlns="http://www.w3.org/2000/svg" d="M279.803 653.859L278.328 654.252L278.733 655.724L280.208 655.331L279.803 653.859Z" fill="#333333" />

<path xmlns="http://www.w3.org/2000/svg" d="M250.083 634.405H248.557V640.511H250.083V634.405Z" fill="#333333" />

<path xmlns="http://www.w3.org/2000/svg" d="M253.947 637.458C252.296 637.456 250.696 636.889 249.411 635.852L247.327 634.196C245.263 632.536 243.977 630.037 243.977 627.671V619.137H245.607V627.671C245.607 629.553 246.657 631.55 248.35 632.923L250.43 634.595C251.42 635.413 252.663 635.86 253.947 635.86C255.23 635.86 256.474 635.413 257.464 634.595L259.548 632.923C260.343 632.312 260.993 631.531 261.451 630.638C261.909 629.744 262.164 628.76 262.197 627.757V619.176H263.824V627.741C263.791 628.989 263.482 630.214 262.919 631.328C262.356 632.442 261.552 633.416 260.566 634.18L258.482 635.852C257.197 636.889 255.597 637.456 253.947 637.458Z" fill="#333333" />

<path xmlns="http://www.w3.org/2000/svg" d="M254.664 650.435L243.213 640.969L244.275 639.748L254.664 648.335L265.053 639.748L266.114 640.969L254.664 650.435Z" fill="#333333" />

<path xmlns="http://www.w3.org/2000/svg" d="M248.263 654.252L246.643 652.819L247.7 651.588L249.32 653.021L248.263 654.252ZM245.023 651.39L243.399 649.96L244.46 648.729L246.08 650.158L245.023 651.39ZM241.78 648.527L240.16 647.086L241.22 645.855L242.84 647.284L241.78 648.527Z" fill="#333333" />

<path xmlns="http://www.w3.org/2000/svg" d="M253.965 658.832L247.793 653.736L248.862 652.587L253.946 656.782L260.438 651.198L261.534 652.329L253.965 658.832Z" fill="#333333" />

<path xmlns="http://www.w3.org/2000/svg" d="M261.145 652.725L260.007 651.493L260.54 651.023L261.677 652.259L261.145 652.725ZM263.359 650.774L262.222 649.542L263.903 648.061L265.041 649.293L263.359 650.774ZM266.722 647.812L265.585 646.572L267.267 645.092L268.404 646.328L266.722 647.812Z" fill="#333333" />

</svg>