<svg width="100" height="100" viewBox="201.0 723.473 110.0 108.4733" fill="none" xmlns="http://www.w3.org/2000/svg">
<rect xmlns="http://www.w3.org/2000/svg" x="206" y="728.473" width="100" height="98.4733" rx="49.2366" fill="none" />

<path xmlns="http://www.w3.org/2000/svg" d="M251.573 784.22C249.62 784.217 247.747 783.44 246.366 782.058C244.985 780.677 244.209 778.804 244.207 776.85V776.76C244.207 776.414 244.207 776.106 244.235 775.801L243.76 775.31C243.107 774.687 242.677 773.866 242.538 772.973L242.227 771.658C242.119 771.067 242.165 770.458 242.362 769.89C242.56 769.322 242.9 768.815 243.352 768.418C242.839 767.033 242.578 765.568 242.58 764.091C242.58 757.583 247.578 752.111 254.204 751.359L254.405 753.09C248.665 753.748 244.335 758.469 244.335 764.084C244.333 765.573 244.642 767.045 245.242 768.408L245.588 769.211L244.782 769.557C244.467 769.721 244.216 769.983 244.065 770.304C243.914 770.625 243.873 770.986 243.947 771.333L244.259 772.648C244.327 773.174 244.571 773.662 244.951 774.033L244.996 774.078L246.121 775.241L246.021 775.698C245.96 776.05 245.938 776.407 245.955 776.764V776.857C245.955 777.685 246.138 778.502 246.491 779.25C246.844 779.999 247.359 780.66 247.997 781.187C248.635 781.713 249.382 782.092 250.184 782.296C250.986 782.501 251.823 782.525 252.636 782.368L252.982 784.099C252.517 784.185 252.046 784.226 251.573 784.22Z" fill="#333333" />

<path xmlns="http://www.w3.org/2000/svg" d="M259.912 784.22C259.441 784.219 258.972 784.174 258.51 784.085L258.856 782.354C259.669 782.513 260.507 782.49 261.309 782.287C262.112 782.083 262.86 781.704 263.499 781.177C264.137 780.65 264.652 779.988 265.004 779.239C265.356 778.49 265.538 777.671 265.537 776.843V776.75C265.553 776.393 265.531 776.036 265.471 775.684L265.371 775.227L266.541 774.019C266.921 773.648 267.165 773.16 267.233 772.634V772.572L267.531 771.322C267.605 770.976 267.563 770.614 267.413 770.294C267.262 769.973 267.01 769.71 266.696 769.546L265.89 769.2L266.236 768.397C266.569 767.637 266.812 766.842 266.963 766.026L268.694 766.344C268.565 767.045 268.376 767.733 268.129 768.401C268.581 768.797 268.922 769.305 269.119 769.872C269.316 770.44 269.363 771.049 269.254 771.641V771.703L268.946 772.973C268.808 773.867 268.379 774.69 267.724 775.313L267.25 775.805C267.278 776.109 267.278 776.411 267.278 776.764V776.854C267.275 778.806 266.498 780.678 265.117 782.059C263.736 783.44 261.864 784.217 259.912 784.22Z" fill="#333333" />

<path xmlns="http://www.w3.org/2000/svg" d="M255.744 785.435C255.026 785.436 254.323 785.223 253.726 784.825C253.128 784.426 252.662 783.859 252.387 783.196C252.111 782.532 252.039 781.802 252.179 781.097C252.318 780.393 252.664 779.746 253.172 779.237C253.679 778.729 254.326 778.383 255.031 778.243C255.735 778.102 256.466 778.174 257.129 778.449C257.793 778.723 258.36 779.189 258.759 779.786C259.159 780.383 259.372 781.085 259.372 781.804C259.371 782.766 258.988 783.688 258.308 784.369C257.628 785.05 256.706 785.433 255.744 785.435ZM255.744 779.931C255.373 779.93 255.009 780.04 254.7 780.246C254.391 780.452 254.15 780.745 254.008 781.088C253.865 781.431 253.828 781.808 253.9 782.172C253.973 782.537 254.151 782.871 254.414 783.134C254.676 783.396 255.011 783.575 255.375 783.647C255.74 783.72 256.117 783.682 256.46 783.54C256.803 783.397 257.096 783.156 257.302 782.847C257.508 782.538 257.617 782.175 257.617 781.804C257.616 781.307 257.418 780.832 257.067 780.481C256.716 780.13 256.24 779.932 255.744 779.931Z" fill="#333333" />

<path xmlns="http://www.w3.org/2000/svg" d="M258.769 781.856V780.101C259.144 780.1 259.514 780.012 259.849 779.842C260.183 779.673 260.473 779.427 260.695 779.124C260.917 778.822 261.065 778.472 261.127 778.102C261.189 777.732 261.162 777.352 261.05 776.994C260.938 776.636 260.744 776.31 260.482 776.041C260.22 775.772 259.899 775.568 259.544 775.446C259.19 775.325 258.811 775.288 258.44 775.339C258.068 775.391 257.714 775.529 257.405 775.743C256.918 776.083 256.338 776.266 255.744 776.266C255.149 776.266 254.569 776.083 254.082 775.743C253.564 775.385 252.927 775.244 252.306 775.348C251.715 775.45 251.184 775.77 250.818 776.244C250.452 776.719 250.277 777.314 250.329 777.912C250.381 778.509 250.655 779.066 251.098 779.47C251.54 779.875 252.119 780.099 252.718 780.097V781.852C252.064 781.856 251.418 781.706 250.833 781.413C250.248 781.12 249.74 780.693 249.351 780.167C248.963 779.64 248.704 779.03 248.596 778.384C248.488 777.739 248.533 777.077 248.73 776.453C248.926 775.829 249.267 775.26 249.724 774.792C250.182 774.325 250.744 773.972 251.364 773.763C251.984 773.554 252.644 773.494 253.292 773.588C253.939 773.682 254.555 773.928 255.09 774.306C255.283 774.438 255.511 774.509 255.745 774.509C255.98 774.509 256.208 774.438 256.401 774.306C256.936 773.928 257.552 773.682 258.2 773.588C258.847 773.494 259.508 773.554 260.128 773.763C260.748 773.973 261.31 774.326 261.768 774.793C262.225 775.261 262.566 775.83 262.762 776.455C262.958 777.079 263.003 777.741 262.895 778.387C262.787 779.032 262.527 779.643 262.138 780.169C261.749 780.695 261.241 781.122 260.655 781.414C260.07 781.707 259.424 781.857 258.769 781.852V781.856Z" fill="#333333" />

<path xmlns="http://www.w3.org/2000/svg" d="M263.445 761.64C262.869 761.64 262.302 761.49 261.801 761.204C261.114 760.805 260.595 760.17 260.341 759.416C260.087 758.663 260.115 757.843 260.421 757.109C260.726 756.375 261.288 755.777 262.002 755.427C262.716 755.076 263.532 754.997 264.3 755.204C265.068 755.411 265.734 755.89 266.175 756.551C266.616 757.213 266.801 758.012 266.697 758.8C266.592 759.588 266.205 760.311 265.607 760.835C265.009 761.359 264.241 761.648 263.445 761.647V761.64ZM263.445 756.836C263.178 756.836 262.915 756.907 262.683 757.04C262.451 757.174 262.258 757.366 262.123 757.597C261.922 757.947 261.868 758.362 261.973 758.751C262.077 759.14 262.332 759.472 262.68 759.674C263.032 759.865 263.443 759.915 263.829 759.812C264.216 759.709 264.548 759.461 264.757 759.12C264.892 758.889 264.963 758.626 264.963 758.359C264.964 758.091 264.894 757.828 264.761 757.596C264.627 757.364 264.435 757.172 264.204 757.037C263.972 756.903 263.71 756.833 263.442 756.832L263.445 756.836Z" fill="#333333" />

<path xmlns="http://www.w3.org/2000/svg" d="M260.5 758.923C258.751 758.867 257.069 758.229 255.724 757.109C254.536 756.071 253.629 754.229 256.039 751.519C258.739 748.483 260.77 749.476 261.743 750.342C263.014 751.47 264.222 753.994 263.952 756.095L262.221 755.87C262.404 754.451 261.508 752.471 260.587 751.654C260.241 751.339 259.296 750.508 257.361 752.692C255.748 754.506 256.277 755.25 256.9 755.808C257.794 756.604 259.632 757.327 260.947 757.151L261.186 758.881C260.959 758.911 260.73 758.925 260.5 758.923Z" fill="#333333" />

<path xmlns="http://www.w3.org/2000/svg" d="M267.786 766.798C266.965 766.77 266.183 766.438 265.592 765.867C264.401 764.828 263.169 762.627 263.196 760.675L264.951 760.709C264.927 762.035 265.865 763.776 266.758 764.569C267.381 765.123 268.181 765.566 269.797 763.748C271.732 761.571 270.794 760.737 270.441 760.422C269.52 759.605 267.45 758.947 266.059 759.297L265.633 757.594C267.689 757.078 270.334 757.978 271.608 759.11C272.58 759.975 273.806 761.879 271.109 764.915C269.846 766.306 268.742 766.798 267.786 766.798Z" fill="#333333" />

<path xmlns="http://www.w3.org/2000/svg" d="M256.128 810.185C253.705 810.185 251.281 810.078 248.89 809.863C239.73 809.036 232.856 801.098 233.548 792.168C233.548 792.13 233.548 792.091 233.548 792.057V766.992C233.554 761.097 235.899 755.446 240.067 751.279C244.236 747.111 249.887 744.767 255.781 744.762H256.214C262.108 744.768 267.759 747.112 271.926 751.28C276.094 755.447 278.438 761.098 278.444 766.992V791.32C278.444 791.347 278.444 791.382 278.444 791.42C279.157 800.943 272.508 809.05 263.303 809.873C260.95 810.078 258.533 810.185 256.128 810.185ZM255.781 746.517C250.353 746.523 245.149 748.682 241.311 752.521C237.472 756.359 235.313 761.564 235.306 766.992V792.057C235.306 792.126 235.306 792.206 235.306 792.296C234.69 800.281 240.845 807.374 249.059 808.115C253.751 808.532 258.47 808.532 263.161 808.115C271.396 807.378 277.354 800.098 276.706 791.538C276.706 791.455 276.706 791.378 276.706 791.309V766.992C276.701 761.564 274.543 756.36 270.705 752.521C266.867 748.683 261.663 746.523 256.235 746.517H255.781Z" fill="#333333" />

<path xmlns="http://www.w3.org/2000/svg" d="M277.901 795.494C240.136 795.494 234.324 777.612 233.594 769.92L235.325 769.751C236.017 776.965 241.555 793.739 277.901 793.739V795.494Z" fill="#333333" />

<path xmlns="http://www.w3.org/2000/svg" d="M274.609 802.265C273.851 802.22 273.051 802.154 272.238 802.071L272.418 800.323C273.207 800.406 273.982 800.468 274.716 800.513L274.609 802.265ZM269.88 801.78C269.114 801.672 268.333 801.55 267.537 801.413L267.838 799.683C268.613 799.818 269.378 799.939 270.123 800.029L269.88 801.78ZM265.211 800.974C264.449 800.818 263.674 800.648 262.895 800.468L263.296 798.758C264.058 798.935 264.816 799.105 265.56 799.253L265.211 800.974ZM260.6 799.894C259.842 799.693 259.084 799.482 258.319 799.257L258.817 797.575C259.565 797.791 260.309 797.999 261.05 798.198L260.6 799.894ZM256.058 798.551C255.311 798.305 254.559 798.049 253.815 797.779L254.414 796.128C255.141 796.394 255.871 796.643 256.605 796.886L256.058 798.551ZM251.6 796.934C250.859 796.64 250.122 796.328 249.412 796.017L250.104 794.411C250.797 794.715 251.51 795.016 252.233 795.307L251.6 796.934ZM247.259 795.016C246.536 794.67 245.826 794.296 245.144 793.926L245.982 792.382C246.639 792.728 247.328 793.095 248.031 793.438L247.259 795.016ZM243.078 792.739C242.385 792.32 241.693 791.884 241.066 791.448L242.06 789.997C242.673 790.416 243.32 790.835 243.988 791.24L243.078 792.739ZM239.131 790.035C238.491 789.533 237.871 789.014 237.29 788.491L238.463 787.19C239.014 787.685 239.602 788.176 240.194 788.651L239.131 790.035ZM235.576 786.82C235.022 786.231 234.497 785.616 234.005 784.975L235.389 783.905C235.836 784.483 236.324 785.061 236.85 785.618L235.576 786.82Z" fill="#333333" />

<path xmlns="http://www.w3.org/2000/svg" d="M256.214 792.735L255.729 791.046C256.218 790.908 256.695 790.762 257.159 790.613L257.692 792.289C257.211 792.441 256.716 792.59 256.214 792.735ZM259.946 791.51L259.329 789.866C260.053 789.596 260.766 789.305 261.448 789.004L262.14 790.61C261.444 790.921 260.7 791.226 259.946 791.51ZM264.307 789.589L263.494 788.031C264.186 787.685 264.844 787.297 265.474 786.91L266.394 788.405C265.737 788.8 265.038 789.198 264.307 789.589ZM268.395 787.065L267.357 785.65C267.973 785.2 268.568 784.725 269.126 784.241L270.278 785.563C269.697 786.068 269.063 786.574 268.406 787.051L268.395 787.065ZM272.03 783.888L270.766 782.666C271.286 782.119 271.777 781.544 272.234 780.959L273.619 782.032C273.124 782.672 272.597 783.287 272.04 783.874L272.03 783.888ZM274.996 780.049L273.501 779.125C273.9 778.479 274.263 777.813 274.588 777.127L276.173 777.885C275.823 778.622 275.433 779.339 275.007 780.035L274.996 780.049ZM277.115 775.649L275.446 775.05C275.695 774.344 275.907 773.625 276.08 772.897L277.807 773.32C277.617 774.108 277.386 774.885 277.115 775.649ZM278.243 770.928L276.513 770.696C276.613 769.949 276.675 769.198 276.699 768.446L278.454 768.505C278.403 769.315 278.337 770.128 278.229 770.928H278.243Z" fill="#333333" />

</svg>