<svg width="100" height="100" viewBox="201.0 125.0 110.0 110.763" fill="none" xmlns="http://www.w3.org/2000/svg">
<rect xmlns="http://www.w3.org/2000/svg" x="206" y="130" width="100" height="100.763" rx="50" fill="none" />

<path xmlns="http://www.w3.org/2000/svg" d="M256.506 183.824C255.653 183.826 254.808 183.649 254.025 183.305C253.242 182.962 252.536 182.459 251.953 181.827L249.895 179.61C248.068 177.658 246.978 174.561 246.978 171.325H248.452C248.452 174.185 249.391 176.893 250.965 178.577L253.043 180.794C253.488 181.278 254.026 181.664 254.624 181.928C255.222 182.192 255.867 182.329 256.52 182.329C257.172 182.329 257.817 182.192 258.415 181.928C259.013 181.664 259.552 181.278 259.996 180.794L262.071 178.577C263.644 176.896 264.587 174.185 264.587 171.325V169.321H266.062V171.325C266.062 174.561 264.971 177.658 263.14 179.61L261.066 181.827C260.481 182.46 259.775 182.963 258.99 183.307C258.206 183.65 257.36 183.827 256.506 183.824Z" fill="#333333" />

<path xmlns="http://www.w3.org/2000/svg" d="M266.534 173.137C260.23 166.25 259.961 159.72 259.955 159.445L261.398 159.397C261.398 159.462 261.68 165.673 267.588 172.128L266.534 173.137Z" fill="#333333" />

<path xmlns="http://www.w3.org/2000/svg" d="M262.245 180.008H260.718V187.641H262.245V180.008Z" fill="#333333" />

<path xmlns="http://www.w3.org/2000/svg" d="M276.868 205.962L275.633 201.452C274.028 195.582 270.466 190.886 265.862 188.579L260.718 185.91L261.38 184.588L266.516 187.25C271.483 189.74 275.337 194.774 277.034 201.062L278.276 205.565L276.868 205.962Z" fill="#333333" />

<path xmlns="http://www.w3.org/2000/svg" d="M252.321 180.771H250.794V187.641H252.321V180.771Z" fill="#333333" />

<path xmlns="http://www.w3.org/2000/svg" d="M255.913 210.541C248.667 210.576 241.469 209.317 234.635 206.82L234 206.586L235.568 200.906C237.28 194.545 241.1 189.446 246.054 186.917L250.617 184.588L251.259 185.938L246.696 188.267C242.106 190.607 238.567 195.359 236.969 201.308L236.466 203.197L235.791 205.645C242.274 207.925 249.079 209.074 255.927 209.044C261.799 209.06 267.643 208.22 273.29 206.551L273.695 207.995C267.913 209.704 261.926 210.561 255.913 210.541Z" fill="#333333" />

<path xmlns="http://www.w3.org/2000/svg" d="M243.924 204.435H242.397V208.252H243.924V204.435Z" fill="#333333" />

<path xmlns="http://www.w3.org/2000/svg" d="M270.642 204.435H269.115V208.252H270.642V204.435Z" fill="#333333" />

<path xmlns="http://www.w3.org/2000/svg" d="M246.927 178.481H245.451C245.451 169.153 251.127 165.656 255.687 162.847C258.524 161.092 260.973 159.593 261.579 157.107L263.008 157.458C262.254 160.548 259.431 162.285 256.444 164.129C251.984 166.892 246.927 170.009 246.927 178.481Z" fill="#333333" />

<path xmlns="http://www.w3.org/2000/svg" d="M243.853 167.794H242.397C242.397 167.762 242.397 167.064 242.479 166.267L243.924 166.389C243.857 167.129 243.853 167.794 243.853 167.794Z" fill="#333333" />

<path xmlns="http://www.w3.org/2000/svg" d="M244.596 164.74L243.161 164.478C243.595 162.096 244.708 158.852 247.541 157.024C252.29 153.961 255.982 154.965 256.138 155.009L255.741 156.418L255.938 155.713L255.744 156.418C255.612 156.384 252.48 155.574 248.331 158.256C245.939 159.801 244.983 162.633 244.596 164.74Z" fill="#333333" />

<path xmlns="http://www.w3.org/2000/svg" d="M255.573 195.275C254.863 195.217 254.161 195.085 253.476 194.882L253.878 193.395C254.467 193.571 255.072 193.684 255.684 193.734L255.573 195.275ZM257.701 195.228L257.525 193.691C258.134 193.614 258.734 193.475 259.317 193.276L259.781 194.749C259.105 194.98 258.408 195.141 257.701 195.228ZM251.493 194.069C250.861 193.729 250.263 193.325 249.708 192.862L250.635 191.652C251.114 192.052 251.63 192.401 252.175 192.693L251.493 194.069ZM261.729 193.853L260.992 192.502C261.525 192.187 262.027 191.818 262.49 191.4L263.466 192.571C262.928 193.056 262.347 193.485 261.729 193.853ZM248.182 191.332C247.724 190.765 247.321 190.152 246.978 189.503L248.286 188.757C248.582 189.317 248.929 189.845 249.324 190.335L248.182 191.332ZM264.93 190.972L263.75 190.025C264.127 189.52 264.454 188.978 264.726 188.405L266.062 189.096C265.744 189.755 265.365 190.38 264.93 190.961V190.972Z" fill="#333333" />

<path xmlns="http://www.w3.org/2000/svg" d="M256.167 198.328C253.454 198.317 250.798 197.516 248.499 196.016C246.201 194.516 244.351 192.376 243.161 189.839L244.498 189.168C245.566 191.444 247.225 193.364 249.287 194.71C251.35 196.055 253.733 196.773 256.167 196.782C258.584 196.791 260.955 196.093 263.01 194.767C265.064 193.441 266.718 191.54 267.785 189.283L269.115 189.971C267.926 192.487 266.082 194.604 263.792 196.082C261.503 197.559 258.861 198.338 256.167 198.328Z" fill="#333333" />

<path xmlns="http://www.w3.org/2000/svg" d="M241.106 188.405C241.038 187.354 241.188 186.3 241.544 185.311C241.9 184.322 242.456 183.42 243.175 182.662C241.68 181.204 239.567 178.081 240.715 172.677L240.477 172.197C239.857 171.106 239.499 169.882 239.431 168.624C238.449 157.737 246.067 152.693 250.233 151.549C254.548 150.36 259.771 151.148 263.046 153.463C267.803 153.214 271.405 156.697 272.706 162.837C273.298 165.635 272.795 170.953 270.382 174.052C271.5 176.761 270.912 180.472 268.976 183.035C270.387 184.201 271.35 185.836 271.694 187.651L270.253 187.9C269.808 185.24 267.569 183.802 267.535 183.789L266.774 183.312L267.385 182.648C269.424 180.43 270.104 176.675 268.874 174.28L268.639 173.821L268.979 173.441C271.307 170.818 271.813 165.694 271.276 163.151C270.104 157.623 267.052 154.627 262.89 154.966L262.618 154.987L262.397 154.824C259.475 152.637 254.63 151.881 250.613 152.986C246.876 154.023 239.995 158.587 240.888 168.476C240.937 169.552 241.244 170.601 241.782 171.53C241.891 171.748 242.01 171.986 242.142 172.259L242.254 172.497L242.197 172.753C240.916 178.361 243.539 181.132 244.725 182.064L245.503 182.673L244.708 183.256C243.979 183.865 243.405 184.642 243.033 185.523C242.66 186.404 242.501 187.362 242.567 188.318L241.106 188.405Z" fill="#333333" />

<path xmlns="http://www.w3.org/2000/svg" d="M256.901 197.565H255.375V204.435H256.901V197.565Z" fill="#333333" />

<path xmlns="http://www.w3.org/2000/svg" d="M252.55 196.91L251.558 201.382L253.046 201.723L254.038 197.251L252.55 196.91Z" fill="#333333" />

<path xmlns="http://www.w3.org/2000/svg" d="M260.697 196.55L259.191 196.802L259.923 201.323L261.429 201.071L260.697 196.55Z" fill="#333333" />

</svg>