<svg width="100" height="100" viewBox="201.0 425.0 110.0 110.0" fill="none" xmlns="http://www.w3.org/2000/svg">
<rect xmlns="http://www.w3.org/2000/svg" x="206" y="430" width="100" height="100" rx="50" fill="none" />

<path xmlns="http://www.w3.org/2000/svg" d="M257.051 507.984H255.695V505.95H257.051V507.984ZM257.051 503.92H255.695V501.886H257.051V503.92ZM257.051 499.855H255.695V497.815H257.051V499.855Z" fill="#333333" />

<path xmlns="http://www.w3.org/2000/svg" d="M261.796 482.899H260.44V489.001H261.796V482.899Z" fill="#333333" />

<path xmlns="http://www.w3.org/2000/svg" d="M256.333 510.018C248.552 510.018 241.055 508.753 234.66 506.364L234 506.125L235.434 501.246C237.154 495.659 241.021 491.179 246.016 488.98L250.605 486.967L251.235 488.309L246.646 490.323C242.05 492.366 238.496 496.491 236.896 501.659L235.864 505.213C241.95 507.384 249.016 508.532 256.347 508.532C263.678 508.532 270.796 507.377 276.885 505.193L275.853 501.649C274.253 496.491 270.693 492.36 266.1 490.326L261.507 488.313L262.137 486.97L266.726 488.984C271.725 491.195 275.585 495.662 277.315 501.239L278.746 506.105L278.096 506.35C271.656 508.746 264.139 510.018 256.333 510.018Z" fill="#333333" />

<path xmlns="http://www.w3.org/2000/svg" d="M251.627 483.577H250.271V489.679H251.627V483.577Z" fill="#333333" />

<path xmlns="http://www.w3.org/2000/svg" d="M242.813 503.238H241.458V507.984H242.813V503.238Z" fill="#333333" />

<path xmlns="http://www.w3.org/2000/svg" d="M269.932 503.238H268.576V507.984H269.932V503.238Z" fill="#333333" />

<path xmlns="http://www.w3.org/2000/svg" d="M256.458 486.289C254.874 486.286 253.338 485.746 252.105 484.759L250.098 483.164C248.115 481.589 246.881 479.21 246.881 476.958V470.886C246.881 465.206 250.881 462.676 251.041 462.569L252.174 461.882L252.212 463.205C252.212 463.24 252.351 466.564 254.507 467.933L255.664 465.368L256.448 466.08C256.5 466.124 261.674 470.718 269.088 469.91L269.255 471.426C262.839 472.113 258.056 469.208 256.222 467.854L255.283 469.917L254.59 469.659C252.098 468.717 251.183 466.265 250.85 464.673C250.047 465.492 249.416 466.461 248.994 467.523C248.571 468.585 248.366 469.72 248.389 470.862V476.934C248.389 478.735 249.401 480.657 251.03 481.953L253.037 483.545C253.992 484.328 255.192 484.757 256.43 484.757C257.669 484.757 258.869 484.328 259.824 483.545L261.827 481.953C262.595 481.37 263.223 480.624 263.665 479.77C264.108 478.916 264.354 477.976 264.385 477.016V472.763H265.948V477.04C265.918 478.226 265.622 479.391 265.083 480.45C264.543 481.509 263.773 482.436 262.829 483.164L260.825 484.759C259.588 485.749 258.047 486.289 256.458 486.289Z" fill="#333333" />

<path xmlns="http://www.w3.org/2000/svg" d="M265.794 465.949L264.279 465.767C264.412 464.734 264.311 463.685 263.984 462.692C263.657 461.7 263.112 460.786 262.385 460.015C261.581 459.143 260.594 458.445 259.489 457.967C258.383 457.49 257.185 457.243 255.974 457.245H255.726L255.695 455.783C257.17 455.745 258.636 456.017 259.991 456.58C261.346 457.143 262.556 457.984 263.539 459.044C264.408 459.971 265.06 461.068 265.449 462.26C265.838 463.452 265.956 464.71 265.794 465.949Z" fill="#333333" />

<path xmlns="http://www.w3.org/2000/svg" d="M246.677 473.407C245.581 472.414 244.689 471.215 244.05 469.877C243.484 468.731 243.1 467.503 242.912 466.237C242.687 464.456 242.846 462.648 243.379 460.935C243.912 459.222 244.805 457.646 245.998 456.313C247.249 454.872 248.791 453.717 250.52 452.923C252.249 452.13 254.127 451.717 256.027 451.712C257.926 451.708 259.804 452.112 261.536 452.896C263.269 453.68 264.815 454.828 266.073 456.261C267.261 457.583 268.152 459.148 268.685 460.849C269.217 462.549 269.379 464.346 269.159 466.116L268.932 468.188L267.424 468.019L267.65 465.946C267.847 464.389 267.706 462.808 267.239 461.311C266.771 459.814 265.988 458.436 264.941 457.273C263.824 456.003 262.451 454.987 260.914 454.293C259.377 453.598 257.711 453.241 256.027 453.246C254.338 453.246 252.67 453.61 251.132 454.313C249.595 455.016 248.224 456.042 247.112 457.321C246.064 458.494 245.279 459.881 244.812 461.388C244.345 462.894 244.207 464.485 244.407 466.05C244.575 467.148 244.911 468.212 245.401 469.207C245.954 470.364 246.725 471.403 247.671 472.264L246.677 473.407Z" fill="#333333" />

<path xmlns="http://www.w3.org/2000/svg" d="M264.135 466.662L263.831 467.984L265.154 468.281L265.458 466.96L264.135 466.662Z" fill="#333333" />

<path xmlns="http://www.w3.org/2000/svg" d="M241.527 481.543C239.672 481.543 237.602 481.126 236.037 479.667L235.355 479.013L236.157 478.491C240.323 475.782 239.413 473.224 238.032 469.373C237.797 468.72 237.555 468.042 237.326 467.341C235.632 462.101 235.577 456.997 237.128 453.965C237.817 452.639 238.821 451.499 240.054 450.646C241.287 449.792 242.711 449.251 244.202 449.069C245.694 448.886 247.207 449.069 248.612 449.6C250.016 450.131 251.268 450.995 252.26 452.116L252.547 452.397C252.748 452.594 252.959 452.804 252.983 452.834L251.831 453.799L252.407 453.315L251.848 453.82C251.807 453.776 251.643 453.616 251.507 453.481C251.37 453.346 251.166 453.142 251.145 453.122C250.315 452.185 249.268 451.464 248.093 451.02C246.919 450.577 245.654 450.424 244.407 450.576C243.16 450.729 241.969 451.181 240.938 451.893C239.907 452.606 239.066 453.558 238.489 454.666C237.125 457.298 237.231 462.098 238.768 466.887C238.99 467.565 239.225 468.242 239.45 468.882C240.753 472.513 241.987 475.954 237.834 479.155C240.831 481.001 245.516 479.43 245.567 479.413L246.062 480.828C244.595 481.294 243.066 481.535 241.527 481.543Z" fill="#333333" />

<path xmlns="http://www.w3.org/2000/svg" d="M242.696 457.136L241.458 456.299C242.552 454.613 243.767 453.753 245.069 453.746C246.955 453.746 248.187 455.58 248.237 455.658L247.016 456.509C247.016 456.509 246.17 455.268 245.066 455.264C244.106 455.271 243.246 456.289 242.696 457.136Z" fill="#333333" />

<path xmlns="http://www.w3.org/2000/svg" d="M261.931 486.84L255.695 493.069L256.663 494.018L262.899 487.79L261.931 486.84Z" fill="#333333" />

<path xmlns="http://www.w3.org/2000/svg" d="M261.576 498.493L255.695 494.36L256.56 493.161L261.16 496.387L264.601 491.035L265.865 491.825L261.576 498.493Z" fill="#333333" />

<path xmlns="http://www.w3.org/2000/svg" d="M250.537 498.493L246.203 491.804L247.46 491.035L250.956 496.432L255.515 493.275L256.373 494.449L250.537 498.493Z" fill="#333333" />

<path xmlns="http://www.w3.org/2000/svg" d="M250.575 487.388L249.593 488.323L255.739 494.641L256.72 493.706L250.575 487.388Z" fill="#333333" />

<path xmlns="http://www.w3.org/2000/svg" d="M253.661 498.493H252.305V509.34H253.661V498.493Z" fill="#333333" />

<path xmlns="http://www.w3.org/2000/svg" d="M245.68 454.424L244.169 453.945C245.535 450.607 248.254 449.713 248.371 449.678L248.915 451.009C248.832 451.034 246.78 451.749 245.68 454.424Z" fill="#333333" />

</svg>