<svg width="100" height="100" viewBox="61.0 276.0 110.0 110.0" fill="none" xmlns="http://www.w3.org/2000/svg">
<rect xmlns="http://www.w3.org/2000/svg" x="66" y="281" width="100" height="100" rx="50" fill="none" />

<path xmlns="http://www.w3.org/2000/svg" d="M118.48 362.595H116.954V360.562H118.48V362.595ZM118.48 358.525H116.954V356.487H118.48V358.525ZM118.48 354.454H116.954V352.416H118.48V354.454ZM118.48 350.383H116.954V348.346H118.48V350.383ZM118.48 346.308H116.954V344.275H118.48V346.308Z" fill="white" />

<path xmlns="http://www.w3.org/2000/svg" d="M118.092 335.115C117.164 335.092 116.25 334.885 115.407 334.509C114.564 334.132 113.81 333.593 113.191 332.925L110.943 330.644C108.975 328.641 107.793 325.467 107.793 322.149H109.345C109.345 325.095 110.364 327.885 112.073 329.614L114.317 331.895C114.775 332.436 115.351 332.871 116.005 333.171C116.659 333.47 117.373 333.625 118.096 333.625C118.82 333.625 119.534 333.47 120.188 333.171C120.841 332.871 121.418 332.436 121.876 331.895L124.124 329.614C125.942 327.645 126.879 324.293 126.852 322.164L128.403 322.137C128.446 324.616 127.387 328.33 125.253 330.625L122.99 332.906C122.372 333.577 121.62 334.119 120.777 334.499C119.935 334.879 119.021 335.088 118.092 335.115Z" fill="white" />

<path xmlns="http://www.w3.org/2000/svg" d="M104.588 337.405L103.977 336.03L105.655 335.115L106.267 336.489L104.588 337.405Z" fill="white" />

<path xmlns="http://www.w3.org/2000/svg" d="M92.4518 356.489L90.9995 356.072L92.5632 350.636C94.2537 344.624 97.7422 339.653 102.383 336.641L103.213 337.897C98.8756 340.707 95.6099 345.376 94.0193 351.041L93.4469 353.076L92.4518 356.489Z" fill="white" />

<path xmlns="http://www.w3.org/2000/svg" d="M103.976 356.489H102.45V360.305H103.976V356.489Z" fill="white" />

<path xmlns="http://www.w3.org/2000/svg" d="M132.984 356.489H131.458V360.305H132.984V356.489Z" fill="white" />

<path xmlns="http://www.w3.org/2000/svg" d="M122.13 310.687L120.771 309.775L121.701 308.397L123.061 309.313L122.13 310.687Z" fill="white" />

<path xmlns="http://www.w3.org/2000/svg" d="M107.111 319.084L107.03 317.6C109.443 317.49 111.805 316.885 113.967 315.827C116.129 314.768 118.042 313.277 119.585 311.45L120.771 312.378C119.093 314.367 117.011 315.99 114.659 317.145C112.308 318.3 109.737 318.96 107.111 319.084Z" fill="white" />

<path xmlns="http://www.w3.org/2000/svg" d="M130.463 323.664L129.118 322.922C131.799 318.279 132.199 312.61 130.145 308.479C129.001 306.172 127.233 304.739 125.171 304.431L124.944 304.397L124.771 304.247C121.549 301.418 117.257 300.788 112.02 302.36C110.332 302.914 108.793 303.833 107.516 305.05C106.24 306.267 105.259 307.75 104.647 309.389C103.338 312.968 104.032 316.984 106.658 321.024C109.895 320.974 113.08 320.212 115.976 318.794C118.872 317.376 121.407 315.337 123.392 312.829L123.689 312.403L124.203 312.518C124.395 312.56 128.875 313.671 128.123 322.3L126.582 322.173C127.064 316.534 125.152 314.716 124.27 314.186C122.099 316.819 119.35 318.937 116.228 320.382C113.106 321.828 109.691 322.563 106.239 322.534H105.823L105.596 322.196C101.676 316.431 102.131 311.772 103.189 308.882C103.887 307.023 105.003 305.343 106.454 303.964C107.904 302.585 109.653 301.545 111.569 300.918C117.269 299.2 122 299.896 125.634 302.978C128.111 303.428 130.2 305.139 131.533 307.817C133.802 312.395 133.383 318.602 130.463 323.664Z" fill="white" />

<path xmlns="http://www.w3.org/2000/svg" d="M123.824 331.298H122.297V337.405H123.824V331.298Z" fill="white" />

<path xmlns="http://www.w3.org/2000/svg" d="M139.893 358.015L138.546 353.256C136.79 347.055 132.898 342.094 127.871 339.657L122.297 337.277L122.914 335.878L128.519 338.277C133.978 340.92 138.161 346.226 140.034 352.849L141.381 357.608L139.893 358.015Z" fill="white" />

<path xmlns="http://www.w3.org/2000/svg" d="M113.137 331.298H111.61V337.405H113.137V331.298Z" fill="white" />

<path xmlns="http://www.w3.org/2000/svg" d="M117.642 362.595C109.839 362.628 102.089 361.33 94.7286 358.759L94.0527 358.522L95.752 352.684C97.5942 346.13 101.707 340.879 107.041 338.279L111.957 335.878L112.629 337.228L107.713 339.629C102.769 342.041 98.942 346.947 97.2157 353.087L96.675 355.005L95.9296 357.563C102.926 359.92 110.269 361.107 117.657 361.076C123.989 361.093 130.291 360.227 136.38 358.502L136.801 359.952C130.57 361.718 124.121 362.608 117.642 362.595Z" fill="white" />

<path xmlns="http://www.w3.org/2000/svg" d="M117.379 338.929C115.055 338.973 112.775 338.32 110.847 337.059L111.714 335.885C113.386 336.972 115.361 337.533 117.371 337.491C119.362 337.536 121.317 336.972 122.96 335.878L123.824 337.048C121.931 338.316 119.677 338.974 117.379 338.929Z" fill="white" />

<path xmlns="http://www.w3.org/2000/svg" d="M125.547 332.824L125.355 331.333L125.451 332.079L125.351 331.333C125.395 331.333 129.513 330.802 131.308 327.87C132.558 325.832 132.437 323.068 130.951 319.657L132.413 319.084C134.101 322.953 134.189 326.168 132.67 328.642C130.473 332.205 125.748 332.802 125.547 332.824Z" fill="white" />

<path xmlns="http://www.w3.org/2000/svg" d="M112.366 345.038C110.749 345.035 109.2 344.391 108.056 343.246C106.913 342.101 106.27 340.55 106.267 338.931H107.825C107.893 340.093 108.402 341.184 109.248 341.982C110.093 342.78 111.211 343.225 112.373 343.225C113.535 343.225 114.654 342.78 115.499 341.982C116.345 341.184 116.854 340.093 116.922 338.931H118.48C118.476 340.552 117.83 342.106 116.684 343.25C115.537 344.395 113.985 345.038 112.366 345.038Z" fill="white" />

<path xmlns="http://www.w3.org/2000/svg" d="M123.064 345.038C121.446 345.038 119.893 344.395 118.748 343.25C117.602 342.105 116.957 340.552 116.954 338.931H118.512C118.58 340.093 119.089 341.184 119.935 341.982C120.78 342.78 121.899 343.225 123.06 343.225C124.222 343.225 125.341 342.78 126.186 341.982C127.032 341.184 127.541 340.093 127.609 338.931H129.167C129.163 340.55 128.519 342.102 127.375 343.246C126.231 344.391 124.681 345.035 123.064 345.038Z" fill="white" />

<path xmlns="http://www.w3.org/2000/svg" d="M115.427 345.802H113.9V361.832H115.427V345.802Z" fill="white" />

</svg>