<svg width="100" height="100" viewBox="341.0 573.473 110.0 108.4733" fill="none" xmlns="http://www.w3.org/2000/svg">
<rect xmlns="http://www.w3.org/2000/svg" x="346" y="578.473" width="100" height="98.4733" rx="49.2366" fill="none" />

<path xmlns="http://www.w3.org/2000/svg" d="M395.968 640.215C394.572 640.206 393.223 639.708 392.157 638.806C391.09 637.905 390.374 636.658 390.132 635.283L391.624 635.009C391.794 636.051 392.333 636.997 393.142 637.675C393.95 638.353 394.976 638.717 396.031 638.703C397.086 638.688 398.101 638.295 398.891 637.595C399.681 636.894 400.193 635.934 400.333 634.888L401.832 635.123C401.628 636.534 400.923 637.825 399.847 638.76C398.771 639.694 397.394 640.211 395.968 640.215Z" fill="#333333" />

<path xmlns="http://www.w3.org/2000/svg" d="M382.327 617.058C382.275 616.919 381.115 613.627 381.115 611.1C381.115 602.062 388.108 599.435 390.254 598.85C394.117 597.794 396.959 598.248 399.991 600.428C401.283 600.34 402.579 600.513 403.803 600.937C405.026 601.361 406.151 602.028 407.111 602.896C409.285 604.89 410.493 607.826 410.511 611.163C410.511 613.136 409.943 615.87 409.701 616.954L408.223 616.608C408.454 615.569 408.994 612.969 408.994 611.152C408.994 608.248 407.956 605.704 406.087 604.001C405.245 603.238 404.254 602.66 403.177 602.302C402.099 601.944 400.959 601.816 399.828 601.924L399.544 601.948L399.313 601.778C396.543 599.701 394.196 599.31 390.659 600.279C388.236 600.941 382.618 603.319 382.621 611.062C382.621 613.336 383.746 616.476 383.756 616.511L382.327 617.058Z" fill="#333333" />

<path xmlns="http://www.w3.org/2000/svg" d="M396 632.202C394.416 632.2 392.879 631.66 391.641 630.672L391.326 630.416C388.446 629.675 386.595 627.027 386.595 623.617C386.592 623.286 386.611 622.956 386.653 622.627C386.786 621.429 386.816 620.221 386.743 619.017C386.743 618.47 386.709 617.92 386.709 617.369V616.715L387.346 616.604C394.148 615.566 396.844 608.362 396.868 608.297L397.73 605.988L398.336 608.362C398.336 608.387 399.271 611.602 405.027 616.639L405.287 616.867V617.362C405.287 617.913 405.287 618.46 405.252 619.01C405.176 620.214 405.205 621.422 405.339 622.62C405.385 622.951 405.408 623.284 405.408 623.617C405.408 627.027 403.56 629.675 400.68 630.419L400.361 630.672C399.123 631.662 397.585 632.202 396 632.202ZM388.242 617.985C388.242 618.311 388.26 618.636 388.27 618.962C388.345 620.251 388.311 621.545 388.166 622.828C388.13 623.09 388.112 623.353 388.111 623.617C388.111 626.362 389.575 628.463 391.835 628.983L392.005 629.021L392.59 629.488C393.557 630.263 394.759 630.685 395.998 630.685C397.237 630.685 398.439 630.263 399.406 629.488L399.991 629.021L400.16 628.983C402.424 628.467 403.885 626.362 403.885 623.617C403.886 623.353 403.867 623.089 403.829 622.828C403.684 621.545 403.651 620.251 403.729 618.962C403.729 618.491 403.757 618.023 403.76 617.553C400.181 614.382 398.423 611.897 397.581 610.373C396.346 612.696 393.469 616.888 388.235 617.985H388.242Z" fill="#333333" />

<path xmlns="http://www.w3.org/2000/svg" d="M389.768 612.793L388.889 611.55C391.658 609.629 393.136 606.739 393.784 605.185C393.968 604.766 394.13 604.337 394.268 603.9L395.729 604.302C395.582 604.801 395.406 605.291 395.203 605.77C394.473 607.473 392.825 610.65 389.768 612.793Z" fill="#333333" />

<path xmlns="http://www.w3.org/2000/svg" d="M387.041 614.23L386.508 612.807C386.954 612.634 387.388 612.434 387.81 612.208L388.502 613.555C388.028 613.806 387.54 614.031 387.041 614.23Z" fill="#333333" />

<path xmlns="http://www.w3.org/2000/svg" d="M403.961 620.914V616.438L409.638 615.984L410.033 620.457L403.961 620.914ZM405.495 617.84V619.28L408.42 619.058L408.292 617.615L405.495 617.84Z" fill="#333333" />

<path xmlns="http://www.w3.org/2000/svg" d="M408.759 629.654C407.631 629.654 406.25 629.533 405.346 629.041L406.07 627.709C406.942 628.186 408.839 628.166 409.922 628.093L410.597 625.525L413.2 626.836C413.813 626.553 415.257 625.767 415.97 624.379L408.856 620.419L409.594 619.096L417.835 623.683L417.649 624.275C416.721 627.176 413.567 628.335 413.432 628.384L413.128 628.495L411.577 627.719L411.113 629.495L410.597 629.554C409.987 629.619 409.373 629.653 408.759 629.654Z" fill="#333333" />

<path xmlns="http://www.w3.org/2000/svg" d="M388.059 621.09L381.957 620.433L382.351 615.957L388.038 616.615L388.059 621.09ZM383.597 619.083L386.533 619.401V617.965L383.732 617.643L383.597 619.083Z" fill="#333333" />

<path xmlns="http://www.w3.org/2000/svg" d="M383.241 629.654C382.624 629.652 382.007 629.617 381.393 629.55L380.877 629.491L380.423 627.719L378.876 628.512L378.572 628.401C378.437 628.353 375.283 627.193 374.359 624.292L374.168 623.7L382.41 619.096L383.148 620.419L376.034 624.379C376.744 625.763 378.184 626.556 378.803 626.836L381.407 625.525L382.099 628.093C383.186 628.169 385.072 628.19 385.952 627.709L386.675 629.041C385.751 629.55 384.37 629.654 383.241 629.654Z" fill="#333333" />

<path xmlns="http://www.w3.org/2000/svg" d="M383.673 650.804H382.157V654.401H383.673V650.804Z" fill="#333333" />

<path xmlns="http://www.w3.org/2000/svg" d="M409.815 650.804H408.299V654.401H409.815V650.804Z" fill="#333333" />

<path xmlns="http://www.w3.org/2000/svg" d="M409.815 650.503H408.299V654.099H409.815V650.503Z" fill="#333333" />

<path xmlns="http://www.w3.org/2000/svg" d="M395.934 643.303C393.753 643.283 391.647 642.501 389.982 641.093C388.317 639.684 387.197 637.738 386.816 635.591L388.308 635.317C388.608 637.144 389.553 638.802 390.972 639.99C392.391 641.179 394.19 641.819 396.04 641.794C397.891 641.768 399.671 641.08 401.058 639.853C402.444 638.627 403.344 636.943 403.594 635.109L405.093 635.341C404.776 637.547 403.676 639.564 401.994 641.026C400.313 642.488 398.162 643.296 395.934 643.303Z" fill="#333333" />

<path xmlns="http://www.w3.org/2000/svg" d="M401.819 631.482H400.303V635.352H401.819V631.482Z" fill="#333333" />

<path xmlns="http://www.w3.org/2000/svg" d="M396 656.64C388.156 656.64 380.607 655.325 374.161 652.85L373.5 652.601L374.937 647.599C376.667 641.839 380.558 637.231 385.584 634.954L390.205 632.859L390.828 634.244L386.211 636.321C381.583 638.433 378 642.704 376.39 648.024L375.352 651.676C381.486 653.933 388.61 655.138 396.01 655.138C403.411 655.138 410.549 653.947 416.669 651.676L415.63 648.018C414.021 642.694 410.438 638.433 405.813 636.335L401.196 634.258L401.819 632.873L406.44 634.968C411.466 637.245 415.347 641.853 417.084 647.602L418.5 652.601L417.853 652.85C411.407 655.325 403.858 656.637 396.014 656.64H396Z" fill="#333333" />

<path xmlns="http://www.w3.org/2000/svg" d="M391.722 631.233H390.206V635.352H391.722V631.233Z" fill="#333333" />

<path xmlns="http://www.w3.org/2000/svg" d="M388.308 653.712C388.282 653.34 388.282 652.966 388.308 652.594L389.821 652.68C389.8 652.982 389.8 653.285 389.821 653.587L388.308 653.712Z" fill="#333333" />

<path xmlns="http://www.w3.org/2000/svg" d="M402.529 651.071C402.346 650.495 402.084 649.947 401.75 649.444L403.013 648.606C403.424 649.228 403.748 649.904 403.976 650.614L402.529 651.071ZM390.157 650.908L388.731 650.41C388.974 649.705 389.316 649.039 389.745 648.43L390.984 649.298C390.635 649.794 390.356 650.335 390.157 650.908ZM400.542 648.09C400.085 647.696 399.575 647.368 399.026 647.118L399.656 645.733C400.334 646.042 400.966 646.446 401.532 646.931L400.542 648.09ZM392.199 647.98L391.244 646.803C391.824 646.334 392.466 645.947 393.151 645.653L393.747 647.038C393.193 647.278 392.676 647.595 392.21 647.98H392.199ZM397.291 646.595C396.694 646.504 396.087 646.496 395.488 646.571L395.297 645.065C396.037 644.974 396.786 644.986 397.523 645.1L397.291 646.595Z" fill="#333333" />

<path xmlns="http://www.w3.org/2000/svg" d="M404.308 653.923L402.802 653.771L402.829 653.535C402.847 653.31 402.85 653.082 402.847 652.86L404.359 652.819C404.37 653.097 404.363 653.376 404.339 653.653C404.335 653.716 404.328 653.778 404.318 653.84L404.308 653.923Z" fill="#333333" />

<path xmlns="http://www.w3.org/2000/svg" d="M400.528 654.366L399.067 653.954C399.142 653.694 399.179 653.425 399.178 653.155C399.178 652.378 398.869 651.633 398.32 651.084C397.771 650.535 397.026 650.226 396.249 650.226C395.472 650.226 394.728 650.535 394.178 651.084C393.629 651.633 393.321 652.378 393.321 653.155C393.32 653.378 393.345 653.601 393.397 653.819L391.919 654.165C391.766 653.505 391.767 652.819 391.92 652.159C392.073 651.499 392.376 650.883 392.804 650.357C393.232 649.832 393.774 649.412 394.39 649.128C395.005 648.845 395.677 648.706 396.355 648.722C397.032 648.738 397.697 648.908 398.298 649.221C398.899 649.533 399.421 649.979 399.824 650.524C400.227 651.069 400.499 651.699 400.621 652.365C400.743 653.032 400.711 653.717 400.528 654.37V654.366Z" fill="#333333" />

</svg>