<svg width="100" height="100" viewBox="341.0 125.0 110.0 110.0" fill="none" xmlns="http://www.w3.org/2000/svg">
<rect xmlns="http://www.w3.org/2000/svg" x="346" y="130" width="100" height="100" rx="50" fill="none" />

<path xmlns="http://www.w3.org/2000/svg" d="M395.809 190.454C393.221 190.48 390.687 189.771 388.557 188.423L389.495 187.221C391.365 188.365 393.561 188.975 395.809 188.975C398.056 188.975 400.253 188.365 402.122 187.221L403.06 188.423C400.931 189.773 398.397 190.482 395.809 190.454Z" fill="#333333" />

<path xmlns="http://www.w3.org/2000/svg" d="M396.159 214.702C387.37 214.702 378.906 213.152 371.674 210.223L371 209.932L372.604 204.013C374.542 197.183 378.898 191.707 384.525 189.016L389.253 186.748V181.346H390.831V187.843L385.18 190.555C379.964 193.061 375.933 198.143 374.115 204.501L372.937 208.931C379.836 211.614 387.854 213.033 396.19 213.033C404.527 213.033 412.58 211.609 419.494 208.91L418.281 204.493C416.467 198.143 412.433 193.061 407.216 190.546L401.562 187.835V180.755H403.139V186.764L407.867 189.033C413.498 191.74 417.847 197.2 419.796 204.017L421.381 209.932L420.707 210.207C413.464 213.144 404.976 214.702 396.159 214.702Z" fill="#333333" />

<path xmlns="http://www.w3.org/2000/svg" d="M380.923 208.236H379.396V212.278H380.923V208.236Z" fill="#333333" />

<path xmlns="http://www.w3.org/2000/svg" d="M411.457 207.428H409.931V212.277H411.457V207.428Z" fill="#333333" />

<path xmlns="http://www.w3.org/2000/svg" d="M395.638 189.678L390.847 193.688L391.806 194.945L396.597 190.935L395.638 189.678Z" fill="#333333" />

<path xmlns="http://www.w3.org/2000/svg" d="M396.345 189.163L395.427 190.454L400.345 194.288L401.263 192.996L396.345 189.163Z" fill="#333333" />

<path xmlns="http://www.w3.org/2000/svg" d="M396.953 205.003H395.427V202.739H396.953V205.003ZM396.953 200.475H395.427V198.211H396.953V200.475ZM396.953 195.947H395.427V193.688H396.953V195.947Z" fill="#333333" />

<path xmlns="http://www.w3.org/2000/svg" d="M385.211 173.481L383.873 172.226C383.286 171.666 382.894 170.886 382.767 170.027L382.498 168.374C382.421 167.888 382.436 167.388 382.544 166.91C382.652 166.431 382.849 165.984 383.123 165.6C383.342 165.289 383.62 165.037 383.936 164.862C384.252 164.688 384.598 164.595 384.949 164.59H386.266V166.248H384.949C384.811 166.252 384.675 166.29 384.55 166.36C384.426 166.431 384.318 166.531 384.232 166.655C384.093 166.853 383.993 167.082 383.94 167.327C383.887 167.573 383.881 167.828 383.923 168.076L384.185 169.73C384.247 170.204 384.457 170.638 384.777 170.952L386.123 172.206L385.211 173.481Z" fill="#333333" />

<path xmlns="http://www.w3.org/2000/svg" d="M409.388 163.782L407.799 163.232C408.114 162.538 408.262 161.792 408.235 161.042C408.208 160.292 408.005 159.556 407.641 158.882L409.112 158.124C409.599 158.995 409.876 159.95 409.923 160.926C409.971 161.902 409.788 162.875 409.388 163.782Z" fill="#333333" />

<path xmlns="http://www.w3.org/2000/svg" d="M395.918 185.605C394.141 185.61 392.415 184.962 391.026 183.766L388.769 181.813C387.74 180.895 386.913 179.742 386.349 178.437C385.784 177.133 385.495 175.71 385.504 174.271V166.666C385.618 163.668 386.619 162.142 387.44 161.357L388.463 162.632C387.871 163.191 387.15 164.351 387.058 166.72V174.287C387.048 175.475 387.282 176.651 387.744 177.73C388.206 178.808 388.885 179.763 389.731 180.526L391.988 182.475C393.103 183.43 394.485 183.949 395.909 183.949C397.333 183.949 398.715 183.43 399.829 182.475L402.086 180.526C402.932 179.763 403.611 178.808 404.073 177.73C404.535 176.651 404.77 175.475 404.759 174.287V164.939H406.31C406.722 164.942 407.129 165.043 407.5 165.235C407.872 165.427 408.2 165.705 408.46 166.049C408.752 166.434 408.961 166.882 409.073 167.364C409.185 167.845 409.198 168.347 409.109 168.834L408.808 170.545C408.653 171.445 408.196 172.253 407.524 172.815L406.314 173.814V174.271C406.325 175.708 406.04 177.13 405.479 178.434C404.918 179.738 404.096 180.892 403.071 181.813L400.814 183.766C399.424 184.962 397.697 185.61 395.918 185.605ZM406.337 166.613V171.708L406.6 171.486C406.966 171.18 407.215 170.742 407.303 170.253L407.605 168.542C407.651 168.297 407.647 168.044 407.591 167.802C407.536 167.559 407.431 167.333 407.284 167.139C407.173 166.981 407.03 166.851 406.866 166.76C406.702 166.669 406.521 166.618 406.337 166.613Z" fill="#333333" />

<path xmlns="http://www.w3.org/2000/svg" d="M383.294 163.782C383.133 162.628 383.214 161.451 383.531 160.334C383.848 159.217 384.394 158.187 385.13 157.316L386.267 158.369C385.672 159.069 385.231 159.899 384.974 160.799C384.717 161.7 384.651 162.648 384.78 163.578L383.294 163.782Z" fill="#333333" />

<path xmlns="http://www.w3.org/2000/svg" d="M406.426 166.207H404.84C404.84 164.607 404.415 163.54 403.542 162.95C401.702 161.719 398.436 162.839 397.871 163.114L397.5 163.294C396.413 163.836 394.593 164.73 392.874 164.73C391.334 164.73 389.82 164.309 388.481 163.508C387.142 162.708 386.023 161.556 385.234 160.164C384.444 158.772 384.012 157.188 383.979 155.568C383.945 153.947 384.312 152.345 385.043 150.919C385.775 149.492 386.845 148.29 388.15 147.429C389.455 146.569 390.95 146.079 392.489 146.009C394.027 145.938 395.557 146.29 396.928 147.028C398.299 147.766 399.465 148.867 400.311 150.221C402.01 152.272 403.277 151.452 404.598 150.586L405.444 150.053L405.88 150.574C408.219 153.343 408.219 156.932 405.931 160.419L404.625 159.471C405.643 157.925 406.964 155.004 405.101 152.219C403.729 153.076 401.453 154.196 399.059 151.275L398.993 151.181C398.3 150.066 397.344 149.159 396.217 148.55C395.091 147.94 393.834 147.649 392.569 147.705C391.304 147.761 390.074 148.161 389 148.867C387.926 149.573 387.045 150.561 386.443 151.733C385.84 152.905 385.537 154.222 385.564 155.554C385.59 156.887 385.945 158.189 386.593 159.334C387.242 160.478 388.161 161.426 389.262 162.085C390.363 162.743 391.608 163.089 392.874 163.089C394.234 163.089 395.789 162.314 396.818 161.801L397.208 161.612C398.105 161.177 401.944 159.906 404.395 161.559C405.736 162.453 406.426 164.02 406.426 166.207Z" fill="#333333" />

<path xmlns="http://www.w3.org/2000/svg" d="M393.9 213.894H392.364C392.364 205.766 385.571 189.702 385.503 189.542L386.896 188.838C387.183 189.509 393.9 205.399 393.9 213.894Z" fill="#333333" />

<path xmlns="http://www.w3.org/2000/svg" d="M387.077 213.086L385.628 212.718L386.883 206.64L383.632 204.02L382.45 190.612L383.932 190.454L385.049 203.127L388.557 205.949L387.077 213.086Z" fill="#333333" />

<path xmlns="http://www.w3.org/2000/svg" d="M400.017 213.894H398.48C398.48 205.399 405.197 189.509 405.484 188.838L406.877 189.542C406.809 189.702 400.017 205.77 400.017 213.894Z" fill="#333333" />

<path xmlns="http://www.w3.org/2000/svg" d="M404.537 213.086L403.061 205.949L406.566 203.127L407.684 190.454L409.167 190.612L407.988 204.02L404.731 206.64L405.988 212.718L404.537 213.086Z" fill="#333333" />

</svg>