<svg width="100" height="100" viewBox="341.0 275.0 110.0 109.2366" fill="none" xmlns="http://www.w3.org/2000/svg">
<rect xmlns="http://www.w3.org/2000/svg" x="346" y="280" width="100" height="99.2366" rx="49.6183" fill="none" />

<path xmlns="http://www.w3.org/2000/svg" d="M408.404 313.504H406.877V320.374H408.404V313.504Z" fill="#333333" />

<path xmlns="http://www.w3.org/2000/svg" d="M386.266 313.504H384.74V320.374H386.266V313.504Z" fill="#333333" />

<path xmlns="http://www.w3.org/2000/svg" d="M406.986 322.664L406.114 321.544L408.172 319.879C408.567 319.563 408.835 319.107 408.925 318.599L409.232 316.934C409.281 316.684 409.276 316.426 409.217 316.178C409.159 315.931 409.047 315.699 408.892 315.501C408.768 315.339 408.61 315.208 408.431 315.117C408.251 315.027 408.054 314.979 407.854 314.978H406.302V313.504H407.868C408.276 313.505 408.679 313.601 409.047 313.783C409.415 313.965 409.739 314.229 409.995 314.556C410.284 314.92 410.491 315.344 410.602 315.8C410.713 316.256 410.724 316.731 410.635 317.192L410.328 318.86C410.174 319.717 409.72 320.486 409.051 321.018L406.986 322.664Z" fill="#333333" />

<path xmlns="http://www.w3.org/2000/svg" d="M384.306 322.664L382.64 321.347C381.946 320.793 381.472 319.99 381.309 319.091L380.982 317.342C380.893 316.865 380.905 316.373 381.019 315.901C381.132 315.43 381.343 314.99 381.636 314.614C381.906 314.267 382.246 313.987 382.632 313.795C383.018 313.603 383.44 313.503 383.867 313.504H385.503V315.027H383.867C383.657 315.029 383.449 315.079 383.259 315.176C383.069 315.272 382.902 315.412 382.771 315.584C382.612 315.789 382.499 316.028 382.439 316.284C382.379 316.54 382.374 316.807 382.425 317.065L382.745 318.807C382.837 319.335 383.114 319.809 383.522 320.135L385.187 321.448L384.306 322.664Z" fill="#333333" />

<path xmlns="http://www.w3.org/2000/svg" d="M402.297 325.718H400.748C400.748 324.145 399.369 322.675 397.906 322.675H394.407C393.671 322.675 392.966 322.965 392.446 323.481C391.925 323.997 391.633 324.697 391.633 325.427H390.083C390.083 324.863 390.195 324.306 390.413 323.785C390.63 323.265 390.948 322.792 391.35 322.394C391.751 321.995 392.228 321.68 392.752 321.464C393.277 321.248 393.839 321.137 394.407 321.137H397.894C400.244 321.137 402.297 323.28 402.297 325.718Z" fill="#333333" />

<path xmlns="http://www.w3.org/2000/svg" d="M392.964 327.244C392.387 327.245 391.81 327.209 391.238 327.138L391.048 327.114L388.573 325.316C387.4 324.392 386.446 323.211 385.783 321.86C385.119 320.51 384.763 319.024 384.74 317.514H386.257C386.276 318.784 386.576 320.032 387.133 321.168C387.691 322.304 388.491 323.297 389.476 324.075L391.614 325.628C393.123 325.79 395.358 325.687 395.959 324.952L396.549 324.229L397.13 324.956C397.658 325.616 399.668 325.746 400.963 325.62L403.745 324.039C404.719 323.221 405.505 322.196 406.048 321.035C406.591 319.874 406.877 318.606 406.887 317.321H408.404C408.391 318.851 408.046 320.36 407.393 321.738C406.739 323.116 405.794 324.33 404.625 325.292L404.532 325.355L401.429 327.114H401.277C400.696 327.177 398.05 327.406 396.541 326.43C395.571 327.094 394.12 327.244 392.964 327.244Z" fill="#333333" />

<path xmlns="http://www.w3.org/2000/svg" d="M398.48 328.008H394.664V329.534H398.48V328.008Z" fill="#333333" />

<path xmlns="http://www.w3.org/2000/svg" d="M402.297 308.16H390.083V309.687H402.297V308.16Z" fill="#333333" />

<path xmlns="http://www.w3.org/2000/svg" d="M398.48 305.107H393.137V306.634H398.48V305.107Z" fill="#333333" />

<path xmlns="http://www.w3.org/2000/svg" d="M394.664 318.847H388.557V314.267H394.664V318.847ZM390.04 317.426H393.18V315.689H390.04V317.426Z" fill="#333333" />

<path xmlns="http://www.w3.org/2000/svg" d="M403.824 318.847H397.717V314.267H403.809L403.824 318.847ZM399.231 317.426H402.364V315.689H399.231V317.426Z" fill="#333333" />

<path xmlns="http://www.w3.org/2000/svg" d="M399.244 314.267H393.9V315.794H399.244V314.267Z" fill="#333333" />

<path xmlns="http://www.w3.org/2000/svg" d="M408.404 314.267H406.889V310.324C406.885 307.71 405.809 305.204 403.896 303.355C401.983 301.507 399.39 300.467 396.684 300.464H396.459C393.754 300.467 391.16 301.507 389.247 303.355C387.334 305.204 386.258 307.71 386.255 310.324V314.267H384.74V310.324C384.744 307.322 385.98 304.444 388.177 302.321C390.374 300.198 393.352 299.004 396.459 299H396.684C399.791 299.004 402.77 300.198 404.967 302.321C407.164 304.444 408.4 307.322 408.404 310.324V314.267Z" fill="#333333" />

<path xmlns="http://www.w3.org/2000/svg" d="M400.69 337.168H392.454C391.082 337.168 389.728 336.868 388.488 336.29C387.249 335.711 386.157 334.869 385.29 333.823C384.424 332.777 383.805 331.555 383.479 330.245C383.152 328.935 383.127 327.57 383.404 326.249L384.632 320.374L386.131 320.678L384.902 326.553C384.671 327.655 384.692 328.794 384.965 329.887C385.237 330.98 385.753 332 386.477 332.873C387.2 333.745 388.111 334.448 389.145 334.931C390.179 335.414 391.309 335.664 392.454 335.664H400.69C401.834 335.663 402.964 335.412 403.998 334.929C405.031 334.446 405.943 333.743 406.666 332.871C407.389 331.999 407.906 330.98 408.179 329.887C408.452 328.794 408.475 327.655 408.245 326.553L407.012 320.678L408.511 320.374L409.74 326.249C410.017 327.57 409.992 328.935 409.666 330.246C409.34 331.556 408.722 332.779 407.855 333.824C406.988 334.87 405.895 335.713 404.656 336.291C403.417 336.869 402.062 337.169 400.69 337.168Z" fill="#333333" />

<path xmlns="http://www.w3.org/2000/svg" d="M381.367 313.504C380.77 310.869 380.483 307.236 382.458 304.905C383.653 303.519 385.428 302.817 387.794 302.817V304.301C385.918 304.301 384.533 304.818 383.668 305.82C381.996 307.794 382.474 311.275 382.872 313.174L381.367 313.504Z" fill="#333333" />

<path xmlns="http://www.w3.org/2000/svg" d="M411.115 313.504L409.584 313.211C409.947 311.33 410.314 307.885 408.688 305.933C407.823 304.896 406.444 304.349 404.587 304.349V302.817C406.93 302.817 408.716 303.533 409.891 304.947C411.816 307.267 411.621 310.879 411.115 313.504Z" fill="#333333" />

<path xmlns="http://www.w3.org/2000/svg" d="M396.159 359.305C387.362 359.305 378.886 357.855 371.647 355.112L371 354.866L372.596 349.349C374.534 342.981 378.921 337.84 384.61 335.239L387.106 334.115L387.73 335.484L385.242 336.601C379.944 339.021 375.859 343.825 374.042 349.775L372.833 353.953C379.754 356.474 387.8 357.79 396.152 357.79C404.503 357.79 412.595 356.451 419.533 353.915L418.323 349.748C416.506 343.794 412.46 339.025 407.224 336.673L404.837 335.603L405.464 334.237L407.848 335.308C413.479 337.836 417.827 342.946 419.777 349.323L421.381 354.824L420.734 355.07C413.483 357.847 404.984 359.305 396.159 359.305Z" fill="#333333" />

<path xmlns="http://www.w3.org/2000/svg" d="M381.425 357.015L379.943 356.637C382.953 345.827 378.077 341.532 377.87 341.358L378.869 340.221C379.108 340.434 384.697 345.244 381.425 357.015Z" fill="#333333" />

<path xmlns="http://www.w3.org/2000/svg" d="M410.957 357.015C407.682 345.236 413.269 340.422 413.508 340.221L414.507 341.358L414.009 340.798L414.511 341.358C414.303 341.533 409.418 345.831 412.434 356.648L410.957 357.015Z" fill="#333333" />

<path xmlns="http://www.w3.org/2000/svg" d="M396.186 341.748C394.466 341.714 392.801 341.147 391.43 340.13C390.06 339.113 389.054 337.697 388.557 336.086L390.02 335.641C390.42 336.946 391.232 338.094 392.339 338.921C393.447 339.748 394.793 340.211 396.186 340.244C397.581 340.242 398.938 339.796 400.05 338.973C401.163 338.15 401.971 336.995 402.353 335.683L403.824 336.109C403.351 337.734 402.35 339.163 400.971 340.18C399.593 341.198 397.913 341.748 396.186 341.748Z" fill="#333333" />

<path xmlns="http://www.w3.org/2000/svg" d="M396.095 344.802C393.905 344.773 391.763 344.152 389.898 343.002C388.033 341.853 386.514 340.219 385.503 338.275L386.823 337.561C387.773 339.442 389.27 340.992 391.117 342.007C392.963 343.021 395.073 343.453 397.17 343.245C399.266 343.038 401.25 342.2 402.863 340.843C404.475 339.486 405.639 337.673 406.202 335.641L407.641 336.067C406.926 338.581 405.413 340.794 403.329 342.37C401.246 343.946 398.706 344.799 396.095 344.802Z" fill="#333333" />

<path xmlns="http://www.w3.org/2000/svg" d="M408.404 347.092H381.687V348.618H408.404V347.092Z" fill="#333333" />

<path xmlns="http://www.w3.org/2000/svg" d="M410.694 353.198H383.213V354.725H410.694V353.198Z" fill="#333333" />

<path xmlns="http://www.w3.org/2000/svg" d="M410.694 351.672H410.011V350.145H410.694V351.672ZM407.977 351.672H405.955V350.145H407.977V351.672ZM403.929 351.672H401.907V350.145H403.929V351.672ZM399.885 351.672H397.863V350.145H399.885V351.672ZM395.837 351.672H393.815V350.145H395.837V351.672ZM391.793 351.672H389.767V350.145H391.793V351.672ZM387.745 351.672H385.723V350.145H387.757L387.745 351.672ZM383.701 351.672H381.687V350.145H383.712L383.701 351.672Z" fill="#333333" />

</svg>