<svg width="100" height="100" viewBox="61.0 426.0 110.0 108.4733" fill="none" xmlns="http://www.w3.org/2000/svg">
<rect xmlns="http://www.w3.org/2000/svg" x="66" y="431" width="100" height="98.4733" rx="49.2366" fill="none" />

<path xmlns="http://www.w3.org/2000/svg" d="M113.904 478.008C113.3 478.008 112.709 477.83 112.206 477.495C111.703 477.159 111.311 476.683 111.08 476.124C110.848 475.566 110.787 474.952 110.905 474.359C111.023 473.767 111.314 473.222 111.741 472.795C112.168 472.368 112.713 472.077 113.305 471.959C113.898 471.842 114.512 471.902 115.07 472.134C115.628 472.366 116.105 472.757 116.441 473.26C116.776 473.763 116.954 474.354 116.954 474.958C116.953 475.767 116.631 476.542 116.059 477.113C115.488 477.685 114.712 478.007 113.904 478.008ZM113.904 473.454C113.607 473.454 113.316 473.543 113.069 473.708C112.821 473.873 112.629 474.108 112.515 474.383C112.401 474.657 112.371 474.96 112.429 475.251C112.487 475.543 112.63 475.811 112.841 476.021C113.051 476.232 113.319 476.375 113.611 476.433C113.902 476.491 114.205 476.461 114.479 476.347C114.754 476.233 114.989 476.041 115.154 475.793C115.319 475.546 115.408 475.255 115.408 474.958C115.407 474.56 115.248 474.178 114.966 473.896C114.684 473.614 114.302 473.455 113.904 473.454Z" fill="#333333" />

<path xmlns="http://www.w3.org/2000/svg" d="M121.534 478.008C120.93 478.008 120.339 477.828 119.837 477.493C119.335 477.157 118.944 476.68 118.713 476.122C118.482 475.564 118.421 474.949 118.539 474.357C118.658 473.765 118.949 473.221 119.376 472.794C119.804 472.367 120.348 472.076 120.941 471.959C121.533 471.842 122.147 471.903 122.705 472.134C123.263 472.366 123.74 472.758 124.075 473.261C124.41 473.763 124.588 474.354 124.587 474.958C124.586 475.767 124.264 476.543 123.692 477.115C123.119 477.686 122.343 478.008 121.534 478.008ZM121.534 473.454C121.237 473.454 120.946 473.543 120.699 473.708C120.451 473.873 120.259 474.108 120.145 474.383C120.031 474.657 120.001 474.96 120.059 475.251C120.117 475.543 120.26 475.811 120.471 476.021C120.681 476.232 120.949 476.375 121.241 476.433C121.532 476.491 121.835 476.461 122.109 476.347C122.384 476.233 122.619 476.041 122.784 475.793C122.949 475.546 123.037 475.255 123.037 474.958C123.036 474.56 122.878 474.178 122.596 473.896C122.314 473.614 121.932 473.455 121.534 473.454Z" fill="#333333" />

<path xmlns="http://www.w3.org/2000/svg" d="M119.244 473.427H116.19V474.954H119.244V473.427Z" fill="#333333" />

<path xmlns="http://www.w3.org/2000/svg" d="M127.154 478.008L126.261 476.796L127.598 475.735C127.897 475.493 128.1 475.144 128.165 474.755L128.422 473.357C128.459 473.168 128.456 472.973 128.412 472.786C128.369 472.599 128.286 472.424 128.169 472.274C128.079 472.156 127.964 472.061 127.833 471.995C127.703 471.93 127.56 471.895 127.415 471.894H126.114V470.374H127.426C127.787 470.376 128.143 470.461 128.469 470.623C128.796 470.784 129.083 471.018 129.312 471.309C129.567 471.632 129.751 472.01 129.849 472.415C129.947 472.82 129.957 473.243 129.88 473.653L129.62 475.051C129.489 475.802 129.098 476.478 128.521 476.951L127.154 478.008Z" fill="#333333" />

<path xmlns="http://www.w3.org/2000/svg" d="M107.628 477.244L106.167 476.168C105.657 475.791 105.254 475.298 104.994 474.734C104.701 474.079 104.66 473.345 104.878 472.664L106.313 473.098C106.209 473.429 106.221 473.782 106.347 474.106C106.506 474.474 106.764 474.794 107.096 475.035L108.557 476.111L107.628 477.244Z" fill="#333333" />

<path xmlns="http://www.w3.org/2000/svg" d="M117.314 512.359C109.2 512.359 101.384 511.019 94.7136 508.487L94.0527 508.238L95.5388 503.095C97.0936 497.997 100.455 493.592 104.761 490.985L105.559 492.283C101.56 494.69 98.446 498.792 97.002 503.522L95.9055 507.307C102.259 509.615 109.658 510.83 117.299 510.83C124.939 510.83 132.385 509.608 138.753 507.284L137.657 503.5C136.486 499.646 134.189 496.222 131.056 493.66L132.026 492.48C135.398 495.239 137.871 498.926 139.132 503.076L140.618 508.215L139.961 508.465C133.275 511.012 125.436 512.359 117.314 512.359Z" fill="#333333" />

<path xmlns="http://www.w3.org/2000/svg" d="M92.419 506.252L90.9995 505.838L92.3234 501.107C93.5629 496.884 95.9491 493.108 99.2037 490.221L100.16 491.374C97.1247 494.075 94.8985 497.601 93.7391 501.544L92.419 506.252Z" fill="#333333" />

<path xmlns="http://www.w3.org/2000/svg" d="M101.872 490.985L100.923 489.674C101.396 489.328 101.888 488.997 102.381 488.695L103.213 490.078C102.761 490.356 102.305 490.662 101.872 490.985Z" fill="#333333" />

<path xmlns="http://www.w3.org/2000/svg" d="M103.976 505.489H102.45V510.832H103.976V505.489Z" fill="#333333" />

<path xmlns="http://www.w3.org/2000/svg" d="M132.221 505.489H130.694V510.069H132.221V505.489Z" fill="#333333" />

<path xmlns="http://www.w3.org/2000/svg" d="M124.419 467.32C123.963 467.324 123.508 467.279 123.061 467.186L123.323 465.794C123.731 465.876 124.146 465.911 124.561 465.897L124.587 467.313L124.419 467.32Z" fill="#333333" />

<path xmlns="http://www.w3.org/2000/svg" d="M121.917 466.557C118.704 465.82 115.792 464.232 113.536 461.988L112.374 460.552L113.622 459.687L114.785 461.123C116.829 463.096 119.433 464.496 122.297 465.161L121.917 466.557Z" fill="#333333" />

<path xmlns="http://www.w3.org/2000/svg" d="M117.709 487.168C116.015 487.166 114.373 486.596 113.059 485.553L110.904 483.871C109.924 483.083 109.136 482.091 108.598 480.97C108.06 479.848 107.785 478.624 107.794 477.386V472.578L111.214 461.977L112.112 462.918C112.161 462.971 117.079 467.983 126.154 469.519L127.641 469.843V477.374C127.649 478.612 127.374 479.837 126.836 480.959C126.298 482.08 125.51 483.071 124.53 483.86L122.371 485.542C121.057 486.592 119.41 487.167 117.709 487.168ZM109.326 472.805V477.386C109.318 478.4 109.542 479.404 109.98 480.324C110.419 481.244 111.062 482.058 111.863 482.706L114.022 484.388C115.062 485.218 116.365 485.672 117.709 485.672C119.054 485.672 120.357 485.218 121.397 484.388L123.556 482.703C124.361 482.057 125.009 481.245 125.451 480.325C125.894 479.405 126.121 478.401 126.116 477.386V471.06L125.86 471.004C118.5 469.758 113.804 466.401 111.924 464.809L109.326 472.805Z" fill="#333333" />

<path xmlns="http://www.w3.org/2000/svg" d="M107.516 473.427C104.898 468.913 104.121 464.974 105.23 461.727C105.973 459.577 107.519 457.796 109.546 456.754C111.41 453.346 115.998 451.946 120.819 453.368C125.951 454.873 131.583 459.914 130.576 469.255L129.067 469.094C129.972 460.682 124.962 456.144 120.389 454.816C116.171 453.59 112.217 454.771 110.772 457.683L110.644 457.935L110.384 458.044C108.632 458.904 107.291 460.416 106.649 462.254C105.705 465.068 106.437 468.578 108.822 472.69L107.516 473.427Z" fill="#333333" />

<path xmlns="http://www.w3.org/2000/svg" d="M123.81 455.87H122.272C122.272 454.515 121.751 453.216 120.824 452.258C119.897 451.3 118.64 450.761 117.329 450.761C116.019 450.761 114.762 451.3 113.835 452.258C112.908 453.216 112.387 454.515 112.387 455.87H110.849C110.828 454.976 110.98 454.086 111.296 453.254C111.613 452.421 112.087 451.663 112.692 451.023C113.296 450.382 114.018 449.874 114.816 449.526C115.613 449.179 116.47 449 117.335 449C118.201 449 119.057 449.179 119.855 449.526C120.652 449.874 121.374 450.382 121.979 451.023C122.583 451.663 123.058 452.421 123.374 453.254C123.691 454.086 123.843 454.976 123.822 455.87H123.81Z" fill="#333333" />

<path xmlns="http://www.w3.org/2000/svg" d="M120.213 500.908C112.23 498.079 111.634 490.513 111.61 489.113V487.168H113.17V489.073H113.12L113.17 489.095C113.17 489.173 113.135 496.802 120.771 499.49L120.213 500.908Z" fill="#333333" />

<path xmlns="http://www.w3.org/2000/svg" d="M117.589 499.382L116.954 498.055C121.645 495.745 121.616 489.103 121.616 489.037V487.168H123.059V489.045C123.07 489.327 123.121 496.658 117.589 499.382Z" fill="#333333" />

<path xmlns="http://www.w3.org/2000/svg" d="M116.971 508.542L116.691 508.431C109.764 505.682 105.619 501.784 104.373 496.849C102.375 488.936 108.564 481.378 108.829 481.061L109.995 482.045C109.934 482.117 104.04 489.333 105.831 496.479C106.932 500.842 110.676 504.343 116.952 506.894C123.229 504.343 126.969 500.842 128.074 496.479C129.884 489.333 123.986 482.117 123.91 482.045L125.076 481.061C125.341 481.378 131.53 488.936 129.535 496.849C128.29 501.784 124.145 505.682 117.214 508.431L116.971 508.542Z" fill="#333333" />

<path xmlns="http://www.w3.org/2000/svg" d="M117.725 494.038C116.104 494.036 114.55 493.392 113.404 492.247C112.257 491.102 111.612 489.55 111.61 487.931H113.167C113.167 489.136 113.647 490.292 114.5 491.145C115.353 491.997 116.51 492.475 117.717 492.475C118.924 492.475 120.081 491.997 120.935 491.145C121.788 490.292 122.267 489.136 122.267 487.931H123.824C123.822 489.548 123.179 491.097 122.036 492.242C120.893 493.386 119.343 494.032 117.725 494.038Z" fill="#333333" />

</svg>