<svg width="100" height="100" viewBox="61.0 722.947 110.0 108.4733" fill="none" xmlns="http://www.w3.org/2000/svg">
<rect xmlns="http://www.w3.org/2000/svg" x="66" y="727.947" width="100" height="98.4733" rx="49.2366" fill="none" />

<path xmlns="http://www.w3.org/2000/svg" d="M103.255 764.932L102.739 762.567C102.092 759.331 102.739 755.99 104.439 753.64C105.416 752.206 106.916 751.212 108.617 750.871C109.413 749.905 112.477 746.617 117.233 746.617C120.123 746.617 124.256 748.164 126.977 751.625C128.652 753.754 130.38 757.417 129.089 762.751L128.562 764.627L127.109 764.219L127.628 762.37C128.774 757.649 127.261 754.409 125.79 752.557C123.398 749.514 119.677 748.126 117.233 748.126C112.56 748.126 109.659 751.979 109.617 752.02L109.424 752.28L109.098 752.321C107.772 752.48 106.578 753.242 105.637 754.526C104.231 756.524 103.66 759.483 104.231 762.259L104.747 764.61L103.255 764.932Z" fill="#333333" />

<path xmlns="http://www.w3.org/2000/svg" d="M121.816 782.277H120.307V785.985H121.816V782.277Z" fill="#333333" />

<path xmlns="http://www.w3.org/2000/svg" d="M116 807.277C108.156 807.277 100.603 805.961 94.1577 803.469L93.5 803.254L94.9365 798.252C96.6673 792.492 100.558 787.888 105.584 785.611L110.205 783.513L110.828 784.898L106.207 786.985C101.576 789.062 98 793.33 96.3835 798.661L95.345 802.32C101.482 804.577 108.61 805.781 116.014 805.781C123.418 805.781 130.552 804.59 136.683 802.32L135.627 798.65C134 793.33 130.424 789.062 125.793 786.985L121.172 784.887L121.795 783.503L126.416 785.6C131.442 787.878 135.322 792.482 137.06 798.232L138.5 803.254L137.856 803.5C131.411 805.978 123.858 807.308 116.014 807.308L116 807.277Z" fill="#333333" />

<path xmlns="http://www.w3.org/2000/svg" d="M111.718 782.229H110.209V785.988H111.718V782.229Z" fill="#333333" />

<path xmlns="http://www.w3.org/2000/svg" d="M124.966 763.523C124.437 763.526 123.91 763.477 123.391 763.377L123.695 761.903C124.169 761.99 124.65 762.026 125.132 762.01L125.163 763.519L124.966 763.523Z" fill="#333333" />

<path xmlns="http://www.w3.org/2000/svg" d="M122.248 763.145C119.075 762.301 116.243 760.493 114.141 757.97L113.026 756.482L114.238 755.578L115.346 757.06C117.231 759.317 119.771 760.932 122.615 761.681L122.248 763.145Z" fill="#333333" />

<path xmlns="http://www.w3.org/2000/svg" d="M125.246 767.632C118.039 767.632 113.303 763.27 111.614 761.401L107.692 767.438L106.425 766.617L111.5 758.836L112.147 759.698C112.196 759.764 117.07 766.122 125.256 766.122L125.246 767.632Z" fill="#333333" />

<path xmlns="http://www.w3.org/2000/svg" d="M125.765 772.865L124.941 771.602L126.028 770.91C126.329 770.722 126.544 770.424 126.627 770.079L126.911 768.822C126.94 768.687 126.938 768.547 126.905 768.413C126.872 768.278 126.809 768.153 126.72 768.047C126.602 767.905 126.454 767.792 126.286 767.716C126.118 767.64 125.935 767.603 125.751 767.607H124.308V766.081H125.741C126.152 766.076 126.558 766.164 126.931 766.339C127.303 766.513 127.631 766.769 127.89 767.088C128.119 767.371 128.281 767.702 128.364 768.056C128.448 768.41 128.45 768.779 128.371 769.134L128.088 770.394C127.92 771.122 127.472 771.755 126.841 772.156L125.765 772.865Z" fill="#333333" />

<path xmlns="http://www.w3.org/2000/svg" d="M106.307 773.052L105.213 772.36C104.577 771.96 104.123 771.326 103.95 770.595L103.645 769.331C103.568 768.978 103.571 768.611 103.653 768.259C103.736 767.907 103.897 767.578 104.123 767.296C104.385 766.969 104.717 766.706 105.094 766.526C105.472 766.346 105.886 766.254 106.304 766.257H107.069V767.766H106.307C106.117 767.763 105.929 767.801 105.756 767.88C105.583 767.958 105.429 768.075 105.307 768.22C105.22 768.324 105.158 768.446 105.126 768.577C105.093 768.709 105.091 768.846 105.12 768.978L105.407 770.238C105.496 770.583 105.714 770.881 106.017 771.069L107.11 771.761L106.307 773.052Z" fill="#333333" />

<path xmlns="http://www.w3.org/2000/svg" d="M116.048 783.004C114.392 782.999 112.787 782.429 111.5 781.388L111.153 781.114C108.17 780.349 106.179 777.511 106.179 773.99C106.179 773.643 106.204 773.296 106.252 772.952C106.395 771.672 106.429 770.382 106.356 769.096C106.338 768.535 106.321 767.971 106.321 767.41V766.693H107.83V767.41C107.83 767.957 107.848 768.504 107.862 769.051C107.94 770.422 107.902 771.798 107.747 773.163C107.709 773.439 107.689 773.718 107.688 773.997C107.688 776.908 109.25 779.145 111.662 779.692L111.828 779.733L112.438 780.218C113.462 781.046 114.739 781.498 116.057 781.498C117.374 781.498 118.651 781.046 119.676 780.218L120.282 779.733L120.451 779.692C122.874 779.145 124.422 776.922 124.422 773.997C124.421 773.718 124.401 773.439 124.363 773.163C124.21 771.799 124.171 770.425 124.248 769.054C124.266 768.507 124.28 767.957 124.28 767.41V766.842H125.789V767.41C125.789 767.971 125.789 768.535 125.758 769.096C125.681 770.382 125.715 771.672 125.858 772.952C125.906 773.296 125.93 773.643 125.931 773.99C125.931 777.511 123.94 780.349 120.957 781.114L120.61 781.388C119.319 782.432 117.709 783.002 116.048 783.004Z" fill="#333333" />

<path xmlns="http://www.w3.org/2000/svg" d="M116 790.848C114.604 790.838 113.255 790.339 112.189 789.437C111.123 788.536 110.406 787.29 110.164 785.915L111.649 785.645C111.821 786.686 112.361 787.631 113.171 788.308C113.98 788.984 115.005 789.348 116.06 789.334C117.115 789.319 118.13 788.927 118.921 788.228C119.711 787.529 120.225 786.569 120.368 785.524L121.86 785.756C121.656 787.166 120.952 788.456 119.876 789.391C118.8 790.326 117.425 790.843 116 790.848Z" fill="#333333" />

<path xmlns="http://www.w3.org/2000/svg" d="M103.836 801.44H102.327V805.037H103.836V801.44Z" fill="#333333" />

<path xmlns="http://www.w3.org/2000/svg" d="M129.985 801.139H128.476V804.736H129.985V801.139Z" fill="#333333" />

<path xmlns="http://www.w3.org/2000/svg" d="M115.979 794.161C113.754 794.144 111.606 793.348 109.908 791.91C108.21 790.472 107.071 788.484 106.688 786.293L108.173 786.019C108.48 787.889 109.447 789.588 110.9 790.805C112.353 792.022 114.194 792.678 116.089 792.652C117.984 792.627 119.807 791.922 121.227 790.666C122.646 789.41 123.567 787.686 123.823 785.808L125.315 786.04C124.992 788.288 123.871 790.346 122.157 791.836C120.444 793.327 118.251 794.152 115.979 794.161Z" fill="#333333" />

<path xmlns="http://www.w3.org/2000/svg" d="M116.754 802.309H115.245V800.298H116.754V802.309ZM116.754 798.287H115.245V796.276H116.754V798.287Z" fill="#333333" />

</svg>