<svg width="100" height="100" viewBox="61.0 574.473 110.0 108.4733" fill="none" xmlns="http://www.w3.org/2000/svg">
<rect xmlns="http://www.w3.org/2000/svg" x="66" y="579.473" width="100" height="98.4733" rx="49.2366" fill="none" />

<path xmlns="http://www.w3.org/2000/svg" d="M135.658 626.298L134.949 625.519C134.492 625.017 132.221 622.434 132.221 620.709C132.211 619.808 132.549 618.932 133.175 618.238C133.474 617.898 133.851 617.622 134.28 617.432C134.708 617.242 135.178 617.141 135.654 617.137C137.55 617.137 139.087 618.74 139.091 620.705C139.091 622.431 136.82 625.017 136.363 625.519L135.658 626.298ZM135.658 618.83C135.45 618.835 135.247 618.883 135.062 618.969C134.876 619.055 134.714 619.177 134.586 619.327C134.241 619.717 134.058 620.207 134.068 620.709C134.068 621.341 134.859 622.58 135.658 623.595C136.473 622.577 137.252 621.349 137.252 620.709C137.248 619.672 136.535 618.83 135.654 618.83H135.658Z" fill="#333333" />

<path xmlns="http://www.w3.org/2000/svg" d="M136.037 609.504H134.511V617.901H136.037V609.504Z" fill="#333333" />

<path xmlns="http://www.w3.org/2000/svg" d="M128.404 615.611H103.213V617.138H128.404V615.611Z" fill="#333333" />

<path xmlns="http://www.w3.org/2000/svg" d="M104.104 639.275C97.4769 627.731 103.222 616.832 103.472 616.374L104.889 617.228C104.835 617.331 99.3823 627.723 105.503 638.379L104.104 639.275Z" fill="#333333" />

<path xmlns="http://www.w3.org/2000/svg" d="M100.244 640.802C95.5939 633.637 95.9744 627.522 96.9829 622.481L98.6727 622.821C97.6908 627.755 97.3787 633.232 101.687 639.858L100.244 640.802Z" fill="#333333" />

<path xmlns="http://www.w3.org/2000/svg" d="M99.4217 620.954L97.8696 620.361C98.1012 619.512 98.3689 618.69 98.6619 617.901L100.16 618.664C99.8884 619.398 99.6424 620.166 99.4217 620.954Z" fill="#333333" />

<path xmlns="http://www.w3.org/2000/svg" d="M127.613 638.512L126.114 637.665C132.17 627.3 126.562 617.315 126.497 617.217L127.995 616.374C128.259 616.814 134.174 627.285 127.613 638.512Z" fill="#333333" />

<path xmlns="http://www.w3.org/2000/svg" d="M128.404 616.374H126.648V607.608C119.634 605.247 111.973 605.256 104.966 607.634V616.374H103.213V606.545L103.722 606.324C104.169 606.129 114.791 601.605 127.837 606.247L127.53 607.023H128.404V616.374Z" fill="#333333" />

<path xmlns="http://www.w3.org/2000/svg" d="M103.968 611.794L94.0527 606.426L116.188 593.473L138.328 606.426L128.498 611.749L127.639 610.268L134.837 606.37L116.188 595.458L97.5431 606.37L104.827 610.313L103.968 611.794Z" fill="#333333" />

<path xmlns="http://www.w3.org/2000/svg" d="M123.824 611.794H104.74V613.321H123.824V611.794Z" fill="#333333" />

<path xmlns="http://www.w3.org/2000/svg" d="M122.297 633.168H120.771V640.038H122.297V633.168Z" fill="#333333" />

<path xmlns="http://www.w3.org/2000/svg" d="M116.159 663.702C107.397 663.702 98.9598 662.283 91.7436 659.596L90.9995 659.305L92.6195 653.805C94.5572 647.524 98.9133 642.5 104.541 640.013L109.707 637.748L110.427 639.303L105.265 641.568C100.095 643.855 96.0997 648.491 94.2976 654.292L93.1349 658.271C99.9791 660.709 107.92 661.992 116.167 661.992C124.414 661.992 132.402 660.702 139.261 658.248L138.099 654.281C136.3 648.491 132.285 643.855 127.131 641.568L121.965 639.303L122.686 637.748L127.856 640.013C133.487 642.5 137.831 647.524 139.781 653.794L141.381 659.305L140.633 659.584C133.409 662.276 124.949 663.702 116.159 663.702Z" fill="#333333" />

<path xmlns="http://www.w3.org/2000/svg" d="M110.847 633.931H109.32V640.038H110.847V633.931Z" fill="#333333" />

<path xmlns="http://www.w3.org/2000/svg" d="M116.245 636.985C114.464 636.988 112.736 636.398 111.351 635.314L109.11 633.575C106.888 631.847 105.503 629.248 105.503 626.788V621.673L106.132 621.493C109.164 620.618 112.476 618.113 112.693 616.536L114.453 616.772C114.127 619.142 110.541 621.801 107.279 622.931V626.8C107.279 628.756 108.412 630.848 110.23 632.26L112.472 633.999C113.535 634.851 114.872 635.317 116.252 635.317C117.633 635.317 118.97 634.851 120.033 633.999L122.275 632.26C123.13 631.624 123.83 630.812 124.323 629.883C124.816 628.954 125.09 627.93 125.125 626.886V622.898C122.29 621.808 118.866 619.24 118.06 616.919L119.719 616.374C120.332 618.132 123.515 620.622 126.273 621.501L126.877 621.692V626.875C126.844 628.172 126.513 629.446 125.909 630.604C125.306 631.763 124.445 632.777 123.388 633.575L121.146 635.314C119.759 636.4 118.028 636.99 116.245 636.985Z" fill="#333333" />

<path xmlns="http://www.w3.org/2000/svg" d="M116.188 651.489L103.977 641.347L105.107 640.038L116.188 649.239L127.269 640.038L128.404 641.347L116.188 651.489Z" fill="#333333" />

<path xmlns="http://www.w3.org/2000/svg" d="M110.453 656.069L108.698 654.492L109.855 653.148L111.61 654.725L110.453 656.069ZM106.947 652.947L105.192 651.37L106.349 650.03L108.104 651.607L106.947 652.947ZM103.441 649.829L101.687 648.253L102.844 646.908L104.598 648.485L103.441 649.829Z" fill="#333333" />

<path xmlns="http://www.w3.org/2000/svg" d="M116.598 660.649L110.083 655.043L111.213 653.778L116.576 658.393L123.431 652.252L124.587 653.495L116.598 660.649Z" fill="#333333" />

<path xmlns="http://www.w3.org/2000/svg" d="M124.186 653.779L123.061 652.541L123.593 652.07L124.719 653.307L124.186 653.779ZM126.4 651.823L125.274 650.586L126.955 649.113L128.081 650.35L126.4 651.823ZM129.777 648.855L128.651 647.618L130.332 646.145L131.457 647.382L129.777 648.855Z" fill="#333333" />

</svg>