<svg width="100" height="100" viewBox="201.0 275.763 110.0 109.2366" fill="none" xmlns="http://www.w3.org/2000/svg">
<rect xmlns="http://www.w3.org/2000/svg" x="206" y="280.763" width="100" height="99.2366" rx="49.6183" fill="none" />

<path xmlns="http://www.w3.org/2000/svg" d="M255.832 335.405C254.107 335.406 252.434 334.828 251.089 333.767L248.704 332.051C247.697 331.24 246.887 330.218 246.333 329.06C245.78 327.901 245.496 326.636 245.504 325.356V317.941H247.027V325.341C247.019 326.389 247.247 327.426 247.696 328.376C248.144 329.327 248.802 330.167 249.622 330.837L252.007 332.553C253.07 333.423 254.409 333.901 255.792 333.904C257.175 333.908 258.516 333.437 259.584 332.572L262.022 330.815C262.835 330.146 263.487 329.308 263.931 328.361C264.375 327.415 264.6 326.383 264.59 325.341V317.847H266.114V325.341C266.122 326.616 265.842 327.876 265.293 329.031C264.744 330.186 263.94 331.206 262.94 332.017L260.556 333.767C259.218 334.829 257.55 335.407 255.832 335.405Z" fill="#333333" />

<path xmlns="http://www.w3.org/2000/svg" d="M268.956 317.084L267.387 316.701L267.974 314.282C268.548 311.534 269.227 304.91 263.061 303.312L263.46 301.817C268.648 303.162 270.919 307.95 269.53 314.612L268.956 317.084Z" fill="#333333" />

<path xmlns="http://www.w3.org/2000/svg" d="M243.237 317.084L242.687 314.534C241.775 309.174 243.663 305.633 245.418 303.574C246.656 302.125 248.185 300.948 249.908 300.12C251.63 299.292 253.508 298.83 255.422 298.763C260.929 298.763 264.158 301.755 264.295 301.883L264.587 302.161L263.218 311.507L261.658 311.283L262.902 302.769C260.742 301.172 258.115 300.319 255.422 300.338C252.84 300.338 249.111 301.654 246.611 304.595C244.419 307.169 243.596 310.509 244.236 314.27L244.778 316.786L243.237 317.084Z" fill="#333333" />

<path xmlns="http://www.w3.org/2000/svg" d="M266.229 325.481L265.351 324.235L266.785 323.07C267.117 322.787 267.343 322.383 267.419 321.933L267.695 320.38C267.735 320.159 267.73 319.931 267.68 319.713C267.631 319.494 267.538 319.29 267.408 319.114C267.307 318.97 267.177 318.852 267.028 318.769C266.879 318.687 266.715 318.641 266.548 318.637H265.537V317.084H266.548C266.926 317.086 267.299 317.18 267.64 317.357C267.981 317.534 268.281 317.791 268.52 318.109C268.786 318.462 268.978 318.874 269.081 319.316C269.183 319.758 269.195 320.219 269.115 320.667L268.835 322.22C268.694 323.049 268.276 323.793 267.659 324.308L266.229 325.481Z" fill="#333333" />

<path xmlns="http://www.w3.org/2000/svg" d="M246.54 325.481L244.928 324.32C244.229 323.809 243.753 323.068 243.59 322.24L243.275 320.693C243.183 320.249 243.194 319.791 243.308 319.352C243.423 318.914 243.637 318.505 243.936 318.155C244.204 317.828 244.545 317.562 244.933 317.377C245.321 317.191 245.748 317.091 246.181 317.084H247.794V318.631H246.181C245.989 318.632 245.8 318.674 245.628 318.755C245.455 318.836 245.304 318.954 245.186 319.099C245.04 319.271 244.935 319.472 244.879 319.687C244.824 319.902 244.818 320.127 244.863 320.344L245.182 321.892C245.265 322.343 245.523 322.748 245.903 323.025L247.515 324.185L246.54 325.481Z" fill="#333333" />

<path xmlns="http://www.w3.org/2000/svg" d="M256.545 362.886L243.213 341.333L244.527 340.513L256.491 359.853L267.828 339.985L269.168 340.763L256.545 362.886Z" fill="#333333" />

<path xmlns="http://www.w3.org/2000/svg" d="M256.19 346.092L253.624 345.292L252.374 342.092L253.838 341.511L254.812 344.005L256.19 344.433L257.569 344.005L258.543 341.511L260.007 342.092L258.757 345.292L256.19 346.092Z" fill="#333333" />

<path xmlns="http://www.w3.org/2000/svg" d="M254.466 345.021L251.61 353.725L253.065 354.187L255.921 345.483L254.466 345.021Z" fill="#333333" />

<path xmlns="http://www.w3.org/2000/svg" d="M258.421 345.67L256.954 346.092L259.779 355.605L261.246 355.183L258.421 345.67Z" fill="#333333" />

<path xmlns="http://www.w3.org/2000/svg" d="M256.572 339.984C253.984 340.009 251.45 339.338 249.32 338.062L250.252 336.931C252.122 338.015 254.321 338.593 256.57 338.593C258.82 338.593 261.018 338.015 262.889 336.931L263.824 338.059C261.694 339.335 259.161 340.008 256.572 339.984Z" fill="#333333" />

<path xmlns="http://www.w3.org/2000/svg" d="M256.159 362.885C247.37 362.885 238.902 361.452 231.67 358.745L231 358.495L232.6 353.028C234.538 346.712 238.898 341.654 244.525 339.167L249.257 337.078V334.386H250.807V338.063L245.161 340.573C239.956 342.878 235.921 347.58 234.1 353.46L232.902 357.551C239.805 360.031 247.831 361.342 256.155 361.342C264.48 361.342 272.557 360.023 279.474 357.524L278.281 353.449C276.463 347.58 272.429 342.878 267.208 340.558L261.554 338.048V333.878H263.104V337.078L267.836 339.178C273.467 341.677 277.816 346.723 279.765 353.028L281.381 358.469L280.711 358.719C273.467 361.445 264.976 362.885 256.159 362.885Z" fill="#333333" />

<path xmlns="http://www.w3.org/2000/svg" d="M240.923 356.779H239.396V360.595H240.923V356.779Z" fill="#333333" />

<path xmlns="http://www.w3.org/2000/svg" d="M272.221 356.015H270.694V359.832H272.221V356.015Z" fill="#333333" />

<path xmlns="http://www.w3.org/2000/svg" d="M266.114 317.847H264.587C264.587 317.798 264.564 312.89 261.534 311.618L262.133 310.214C266.099 311.875 266.114 317.602 266.114 317.847Z" fill="#333333" />

<path xmlns="http://www.w3.org/2000/svg" d="M258.83 310.214L257.717 309.115C258.076 308.755 258.393 308.355 258.664 307.924L260.007 308.703C259.675 309.251 259.279 309.758 258.83 310.214Z" fill="#333333" />

<path xmlns="http://www.w3.org/2000/svg" d="M246.267 314.779V313.267H246.869C251.51 313.18 254.378 311.559 255.961 310.214L256.954 311.374C255.177 312.886 251.987 314.699 246.88 314.794L246.267 314.779Z" fill="#333333" />

<path xmlns="http://www.w3.org/2000/svg" d="M247.03 318.591V317.001H247.788C258.02 316.814 261.662 309.522 261.697 309.45L263.061 310.178C262.902 310.511 258.957 318.408 247.8 318.611L247.03 318.591Z" fill="#333333" />

<path xmlns="http://www.w3.org/2000/svg" d="M255.757 338.902L248.557 344.565L249.519 345.75L256.72 340.088L255.757 338.902Z" fill="#333333" />

<path xmlns="http://www.w3.org/2000/svg" d="M257.153 339.563L256.19 340.748L263.39 346.412L264.353 345.227L257.153 339.563Z" fill="#333333" />

<path xmlns="http://www.w3.org/2000/svg" d="M259.557 362.885L258.48 361.77L267.626 352.749L266.748 348.932L269.709 347.37L268.404 341.068L269.912 340.748L271.458 348.207L268.519 349.758L269.324 353.25L259.557 362.885Z" fill="#333333" />

<path xmlns="http://www.w3.org/2000/svg" d="M252.824 362.885L243.057 353.249L243.862 349.756L240.923 348.204L242.469 340.748L243.977 341.065L242.671 347.367L245.637 348.93L244.755 352.747L253.9 361.77L252.824 362.885Z" fill="#333333" />

<path xmlns="http://www.w3.org/2000/svg" d="M260.838 329.298C260.359 328.322 259.011 326.303 257.901 326.303H254.381C253.191 326.357 251.871 328.349 251.511 329.036L250.083 328.318C250.27 327.958 251.966 324.803 254.349 324.718H257.917C260.331 324.718 262.103 328.208 262.297 328.622L260.838 329.298Z" fill="#333333" />

<path xmlns="http://www.w3.org/2000/svg" d="M257.825 330.061C257.558 329.588 257.115 329.156 256.939 329.136H255.402C255.242 329.136 254.783 329.571 254.548 329.97L253.137 329.348C253.29 329.095 254.109 327.818 255.367 327.771H256.935C258.228 327.771 259.087 329.186 259.244 329.46L257.825 330.061Z" fill="#333333" />

<path xmlns="http://www.w3.org/2000/svg" d="M261.108 328.534L260.771 327.034C262.356 326.719 263.889 326.197 265.329 325.481L266.114 326.81C264.537 327.609 262.852 328.189 261.108 328.534Z" fill="#333333" />

<path xmlns="http://www.w3.org/2000/svg" d="M251.236 328.534C249.525 328.173 247.859 327.628 246.267 326.909L246.999 325.481C248.479 326.139 250.025 326.641 251.61 326.98L251.236 328.534Z" fill="#333333" />

</svg>