<svg width="100" height="100" viewBox="341.0 424.237 110.0 109.2366" fill="none" xmlns="http://www.w3.org/2000/svg">
<rect xmlns="http://www.w3.org/2000/svg" x="346" y="429.237" width="100" height="99.2366" rx="49.6183" fill="none" />

<path xmlns="http://www.w3.org/2000/svg" d="M394.651 483.878C392.96 483.877 391.32 483.302 390.005 482.25L387.849 480.539C386.869 479.739 386.081 478.732 385.543 477.593C385.005 476.454 384.731 475.21 384.739 473.953V465.305H386.277V473.953C386.267 474.984 386.49 476.004 386.928 476.94C387.367 477.875 388.011 478.702 388.813 479.36L390.969 481.071C392.008 481.921 393.314 482.385 394.661 482.385C396.008 482.385 397.314 481.921 398.353 481.071L400.509 479.36C401.311 478.702 401.956 477.875 402.395 476.94C402.835 476.005 403.058 474.984 403.049 473.953V463.267H404.586V473.953C404.595 475.21 404.321 476.454 403.783 477.593C403.245 478.732 402.457 479.739 401.477 480.539L399.321 482.25C397.999 483.307 396.351 483.881 394.651 483.878Z" fill="#333333" />

<path xmlns="http://www.w3.org/2000/svg" d="M403.949 474.718L403.06 473.465L404.486 472.275C404.815 471.997 405.038 471.598 405.111 471.153L405.386 469.599C405.428 469.382 405.424 469.158 405.375 468.943C405.326 468.727 405.233 468.526 405.103 468.355C405.002 468.217 404.873 468.106 404.727 468.028C404.581 467.951 404.421 467.909 404.258 467.907V466.321C404.636 466.324 405.008 466.417 405.348 466.593C405.689 466.769 405.989 467.024 406.228 467.34C406.495 467.691 406.687 468.101 406.79 468.542C406.893 468.983 406.904 469.443 406.823 469.889L406.548 471.443C406.405 472.267 405.986 473.007 405.372 473.52L403.949 474.718Z" fill="#333333" />

<path xmlns="http://www.w3.org/2000/svg" d="M384.608 474.718L383.196 473.525C382.582 473.016 382.161 472.28 382.013 471.455L381.739 469.897C381.659 469.45 381.67 468.989 381.772 468.547C381.874 468.106 382.065 467.694 382.331 467.342C382.568 467.026 382.866 466.771 383.204 466.594C383.543 466.417 383.912 466.324 384.287 466.321V467.91C384.13 467.917 383.976 467.959 383.836 468.036C383.695 468.113 383.572 468.222 383.473 468.355C383.344 468.528 383.252 468.729 383.204 468.945C383.155 469.161 383.151 469.385 383.192 469.603L383.466 471.161C383.538 471.606 383.759 472.007 384.086 472.286L385.503 473.478L384.608 474.718Z" fill="#333333" />

<path xmlns="http://www.w3.org/2000/svg" d="M400.77 480.824H399.243V487.695H400.77V480.824Z" fill="#333333" />

<path xmlns="http://www.w3.org/2000/svg" d="M416.134 505.252L414.859 500.65C413.199 495.009 409.515 490.492 404.755 488.266L400.007 486.045L400.624 484.641L405.373 486.859C410.528 489.27 414.509 494.136 416.285 500.216L417.564 504.814L416.134 505.252Z" fill="#333333" />

<path xmlns="http://www.w3.org/2000/svg" d="M394.251 509.831C386.138 509.831 378.322 508.451 371.645 505.834L370.999 505.581L372.484 500.273C374.288 494.164 378.303 489.284 383.499 486.865L388.284 484.641L388.911 486.049L384.122 488.273C379.317 490.509 375.602 495.039 373.927 500.717L372.826 504.644C379.188 507.035 386.575 508.295 394.244 508.295C400.437 508.323 406.602 507.448 412.555 505.698L412.984 507.179C406.894 508.969 400.587 509.862 394.251 509.831Z" fill="#333333" />

<path xmlns="http://www.w3.org/2000/svg" d="M390.083 481.588H388.556V487.695H390.083V481.588Z" fill="#333333" />

<path xmlns="http://www.w3.org/2000/svg" d="M394.353 495.328L384.739 488.112L385.658 486.931L394.346 493.457L402.897 486.931L403.823 488.108L394.353 495.328Z" fill="#333333" />

<path xmlns="http://www.w3.org/2000/svg" d="M393.995 499.145L383.976 491.92L384.906 490.748L394.002 497.308L402.905 490.988L403.823 492.167L393.995 499.145Z" fill="#333333" />

<path xmlns="http://www.w3.org/2000/svg" d="M419.218 500.672L418.795 499.174C417.438 494.446 414.592 490.302 410.694 487.377L411.548 486.168C415.701 489.273 418.739 493.678 420.194 498.706V498.759L420.618 500.256L419.218 500.672Z" fill="#333333" />

<path xmlns="http://www.w3.org/2000/svg" d="M409.077 486.168C408.366 485.802 407.632 485.471 406.877 485.177L407.563 483.878C408.376 484.197 409.167 484.556 409.93 484.955L409.077 486.168Z" fill="#333333" />

<path xmlns="http://www.w3.org/2000/svg" d="M385.503 470.137V468.676C389.405 468.676 396.902 465.445 396.975 465.412L397.676 465.109L398.62 467.104C400.574 466.376 402.194 465.017 403.196 463.267L404.587 463.874C403.959 465.167 401.956 467.649 398.423 468.716L397.768 468.913L396.886 467.039C394.879 467.868 389.035 470.137 385.503 470.137Z" fill="#333333" />

<path xmlns="http://www.w3.org/2000/svg" d="M406.106 460.977H383.984V459.64C383.928 458.132 384.173 456.628 384.704 455.219C385.234 453.809 386.04 452.523 387.073 451.436C388.105 450.349 389.344 449.485 390.713 448.895C392.083 448.304 393.556 448 395.045 448C396.533 448 398.006 448.304 399.376 448.895C400.746 449.485 401.984 450.349 403.017 451.436C404.049 452.523 404.855 453.809 405.386 455.219C405.917 456.628 406.161 458.132 406.106 459.64V460.977ZM385.536 459.404H404.577C404.506 456.892 403.472 454.507 401.694 452.756C399.916 451.005 397.535 450.025 395.056 450.025C392.578 450.025 390.196 451.005 388.419 452.756C386.641 454.507 385.607 456.892 385.536 459.404Z" fill="#333333" />

<path xmlns="http://www.w3.org/2000/svg" d="M396.19 447.237H393.136V448.763H396.19V447.237Z" fill="#333333" />

<path xmlns="http://www.w3.org/2000/svg" d="M405.35 464.031H380.531C379.064 464.031 377.869 463.012 377.869 461.755C377.869 460.498 379.064 459.45 380.531 459.45H405.35V464.031ZM380.531 460.905C379.901 460.905 379.37 461.272 379.37 461.726C379.37 462.18 379.901 462.591 380.531 462.591H403.85V460.905H380.531Z" fill="#333333" />

<path xmlns="http://www.w3.org/2000/svg" d="M391.647 459.45H390.083C390.083 451.327 392.037 448.844 393.648 448.191C394.238 447.954 395.063 447.897 395.427 448.256L394.871 448.791L394.191 449.173C394.241 449.265 394.31 449.347 394.393 449.413C394.476 449.478 394.573 449.527 394.676 449.554C394.516 449.55 394.357 449.577 394.209 449.635C394.06 449.693 393.925 449.78 393.812 449.891C393.011 450.509 391.647 452.66 391.647 459.45Z" fill="#333333" />

<path xmlns="http://www.w3.org/2000/svg" d="M399.243 459.45H397.675C397.683 452.664 396.307 450.515 395.523 449.863C395.41 449.753 395.275 449.666 395.127 449.608C394.979 449.551 394.82 449.523 394.66 449.527C394.765 449.5 394.862 449.452 394.946 449.386C395.031 449.32 395.1 449.238 395.151 449.145L394.461 448.79L393.9 448.264C394.257 447.901 395.076 447.951 395.672 448.183C397.291 448.836 399.243 451.313 399.243 459.45Z" fill="#333333" />

<path xmlns="http://www.w3.org/2000/svg" d="M381.686 507.542H380.048C380.048 498.473 377.89 492.849 377.869 492.792L379.397 492.275C379.499 492.507 381.686 498.184 381.686 507.542Z" fill="#333333" />

<path xmlns="http://www.w3.org/2000/svg" d="M385.503 508.305H383.886C383.886 495.737 380.955 489.123 380.923 489.058L382.419 488.458C382.536 488.733 385.503 495.401 385.503 508.305Z" fill="#333333" />

<path xmlns="http://www.w3.org/2000/svg" d="M409.282 507.542H407.64C407.64 498.184 409.832 492.511 409.922 492.275L411.457 492.792C411.445 492.849 409.282 498.473 409.282 507.542Z" fill="#333333" />

<path xmlns="http://www.w3.org/2000/svg" d="M404.68 508.305H403.06C403.06 495.386 406.037 488.733 406.162 488.458L407.64 489.058C407.612 489.123 404.68 495.737 404.68 508.305Z" fill="#333333" />

</svg>